<svg aria-hidden="true" style="position: absolute; width: 0; height: 0; overflow: hidden;" version="1.1" xmlns="http://www.w3.org/2000/svg" xmlns:xlink="http://www.w3.org/1999/xlink">
<defs>
<symbol id="icon-amex" viewBox="0 0 32 32">
<path fill="#fff" style="fill: var(--color1, #fff)" d="M0 0h32v32h-32v-32z"></path>
<path fill="#0077a6" style="fill: var(--color2, #0077a6)" d="M1.408 29.5h-0.091c0-0.046-0.023-0.114-0.023-0.137s0-0.068-0.069-0.068h-0.137v0.206h-0.069v-0.481h0.206c0.092 0 0.16 0.023 0.16 0.114 0 0.069-0.023 0.092-0.046 0.114 0.023 0.023 0.046 0.046 0.046 0.092v0.091c0 0.023 0 0.023 0.023 0.023v0.046zM1.317 29.157c0-0.069-0.046-0.069-0.069-0.069h-0.16v0.137h0.137c0.046 0 0.092-0.023 0.092-0.069zM1.706 29.248c0-0.275-0.229-0.504-0.527-0.504-0.275 0-0.504 0.229-0.504 0.504 0 0.298 0.229 0.527 0.504 0.527 0.298-0 0.527-0.229 0.527-0.527zM1.638 29.248c0 0.252-0.206 0.435-0.458 0.435s-0.435-0.183-0.435-0.435c0-0.229 0.183-0.435 0.435-0.435s0.458 0.206 0.458 0.435zM29.852 19.996c0 0.687-0.435 1.007-1.214 1.007h-1.488v-0.687h1.488c0.137 0 0.252-0.023 0.298-0.068s0.091-0.115 0.091-0.206c0-0.092-0.046-0.183-0.091-0.229s-0.137-0.069-0.275-0.069c-0.71-0.023-1.603 0.023-1.603-0.985 0-0.458 0.298-0.962 1.099-0.962h1.534v0.687h-1.42c-0.137 0-0.229 0-0.298 0.046-0.069 0.069-0.114 0.137-0.114 0.252s0.069 0.183 0.16 0.229c0.092 0.023 0.183 0.046 0.298 0.046h0.412c0.435 0 0.71 0.091 0.893 0.252 0.137 0.16 0.229 0.367 0.229 0.687zM26.623 19.309c-0.183-0.161-0.458-0.252-0.893-0.252h-0.412c-0.114 0-0.206-0.023-0.298-0.046-0.092-0.046-0.16-0.115-0.16-0.229s0.023-0.183 0.114-0.252c0.069-0.046 0.16-0.046 0.298-0.046h1.42v-0.687h-1.534c-0.825 0-1.099 0.504-1.099 0.962 0 1.007 0.893 0.962 1.603 0.985 0.137 0 0.229 0.023 0.275 0.069s0.092 0.137 0.092 0.229c0 0.091-0.046 0.16-0.092 0.206-0.069 0.046-0.16 0.068-0.298 0.068h-1.489v0.687h1.489c0.778 0 1.214-0.32 1.214-1.007 0-0.321-0.091-0.527-0.229-0.687zM23.692 20.34h-1.809v-0.641h1.763v-0.641h-1.763v-0.596h1.809v-0.664h-2.565v3.206h2.565v-0.664zM20.302 17.958c-0.252-0.137-0.55-0.161-0.939-0.161h-1.763v3.206h0.778v-1.168h0.825c0.275 0 0.435 0.023 0.55 0.137 0.137 0.16 0.137 0.435 0.137 0.641v0.389h0.756v-0.618c0-0.298-0.023-0.435-0.114-0.595-0.069-0.092-0.206-0.206-0.389-0.275 0.206-0.068 0.55-0.343 0.55-0.847-0-0.366-0.138-0.572-0.39-0.71zM15.951 17.798h-2.451l-0.985 1.054-0.939-1.054h-3.092v3.206h3.046l0.985-1.054 0.939 1.054h1.489v-1.076h0.962c0.664 0 1.328-0.183 1.328-1.076-0-0.87-0.687-1.054-1.283-1.054zM19.684 19.126c-0.114 0.046-0.229 0.046-0.366 0.046l-0.939 0.023v-0.733h0.939c0.137 0 0.275 0 0.366 0.069 0.092 0.046 0.16 0.137 0.16 0.275s-0.068 0.252-0.16 0.321zM15.951 19.286h-1.008v-0.825h1.008c0.275 0 0.458 0.115 0.458 0.389s-0.183 0.435-0.458 0.435zM12.997 19.401l1.191-1.259v2.588l-1.191-1.328zM11.142 20.34h-1.901v-0.641h1.695v-0.641h-1.695v-0.596h1.924l0.847 0.939-0.87 0.939zM27.722 15.485h-1.099l-1.443-2.405v2.405h-1.557l-0.298-0.71h-1.603l-0.298 0.71h-0.893c-0.366 0-0.847-0.092-1.122-0.367-0.252-0.275-0.389-0.641-0.389-1.214 0-0.481 0.069-0.916 0.412-1.26 0.229-0.252 0.641-0.366 1.168-0.366h0.733v0.687h-0.733c-0.275 0-0.435 0.046-0.595 0.183-0.137 0.137-0.206 0.389-0.206 0.733s0.069 0.595 0.206 0.756c0.114 0.114 0.321 0.16 0.527 0.16h0.344l1.099-2.519h1.145l1.282 3.023v-3.023h1.191l1.351 2.221v-2.221h0.778v3.206h0zM18.63 12.278h-0.778v3.206h0.778v-3.206zM17.004 12.416c-0.252-0.137-0.527-0.137-0.916-0.137h-1.764v3.206h0.756v-1.168h0.824c0.275 0 0.458 0.023 0.573 0.137 0.137 0.16 0.114 0.435 0.114 0.618v0.412h0.778v-0.641c0-0.275-0.023-0.412-0.137-0.573-0.069-0.092-0.206-0.206-0.366-0.275 0.206-0.092 0.55-0.343 0.55-0.847 0-0.366-0.16-0.573-0.412-0.733zM13.775 14.821h-1.786v-0.641h1.763v-0.664h-1.763v-0.573h1.786v-0.664h-2.565v3.206h2.565v-0.664zM10.638 12.278h-1.26l-0.939 2.176-1.008-2.176h-1.237v3.023l-1.305-3.023h-1.145l-1.374 3.206h0.824l0.298-0.71h1.603l0.298 0.71h1.557v-2.519l1.122 2.519h0.664l1.122-2.519v2.519h0.779v-3.206h0zM23.051 14.088l-0.527-1.26-0.527 1.26h1.054zM16.409 13.584c-0.114 0.069-0.229 0.069-0.389 0.069h-0.939v-0.71h0.939c0.137 0 0.297 0 0.389 0.046 0.091 0.069 0.137 0.16 0.137 0.298s-0.046 0.252-0.137 0.298zM3.767 14.088l0.527-1.26 0.527 1.26h-1.054zM29.669 2.225h-27.322v11.542l0.939-2.13h1.992l0.275 0.527v-0.527h2.336l0.527 1.145 0.504-1.145h7.443c0.343 0 0.641 0.069 0.87 0.252v-0.252h2.038v0.252c0.343-0.183 0.778-0.252 1.282-0.252h2.954l0.275 0.527v-0.527h2.176l0.321 0.527v-0.527h2.13v4.489h-2.153l-0.412-0.687v0.687h-2.68l-0.298-0.733h-0.664l-0.298 0.733h-1.397c-0.55 0-0.962-0.137-1.237-0.275v0.275h-3.321v-1.031c0-0.137-0.023-0.16-0.115-0.16h-0.114v1.191h-6.413v-0.573l-0.229 0.573h-1.351l-0.229-0.55v0.55h-2.588l-0.275-0.733h-0.664l-0.298 0.733h-1.328v13.535h27.322v-8.222c-0.298 0.137-0.71 0.206-1.122 0.206h-1.992v-0.275c-0.229 0.183-0.641 0.275-1.030 0.275h-6.275v-1.030c0-0.137-0.023-0.137-0.137-0.137h-0.114v1.168h-2.061v-1.214c-0.343 0.16-0.733 0.16-1.076 0.16h-0.229v1.054h-2.519l-0.595-0.687-0.664 0.687h-4.054v-4.489h4.122l0.595 0.687 0.641-0.687h2.771c0.32 0 0.847 0.046 1.076 0.275v-0.275h2.473c0.252 0 0.733 0.046 1.054 0.275v-0.275h3.733v0.275c0.206-0.183 0.596-0.275 0.939-0.275h2.084v0.275c0.229-0.16 0.55-0.275 0.962-0.275h1.42v-14.932z"></path>
</symbol>
<symbol id="icon-discover" viewBox="0 0 32 32">
<path fill="#fff" style="fill: var(--color1, #fff)" d="M0 0h32v32h-32v-32z"></path>
<path fill="#000" style="fill: var(--color3, #000)" d="M2.729 12.401h-1.317v4.584h1.3c0.701 0 1.197-0.154 1.642-0.53 0.513-0.427 0.838-1.078 0.838-1.762 0-1.351-1.009-2.292-2.463-2.292zM3.772 15.856c-0.291 0.24-0.65 0.359-1.231 0.359h-0.239v-3.027h0.239c0.581 0 0.924 0.103 1.231 0.359 0.308 0.274 0.496 0.701 0.496 1.146s-0.188 0.889-0.496 1.163zM5.602 16.985h0.889v-4.584h-0.889v4.584zM8.681 14.163c-0.547-0.205-0.701-0.325-0.701-0.582 0-0.291 0.291-0.496 0.667-0.496 0.274 0 0.496 0.103 0.718 0.359l0.479-0.598c-0.393-0.342-0.855-0.513-1.351-0.513-0.821 0-1.437 0.564-1.437 1.317 0 0.633 0.291 0.941 1.129 1.249 0.359 0.12 0.53 0.205 0.616 0.257 0.188 0.12 0.274 0.291 0.274 0.479 0 0.376-0.291 0.65-0.701 0.65s-0.77-0.222-0.975-0.616l-0.564 0.564c0.411 0.598 0.906 0.872 1.591 0.872 0.924 0 1.574-0.616 1.574-1.505-0-0.736-0.308-1.061-1.317-1.437zM10.272 14.693c0 1.351 1.060 2.395 2.429 2.395 0.376 0 0.718-0.069 1.112-0.257v-1.060c-0.359 0.359-0.667 0.513-1.078 0.513-0.889 0-1.539-0.667-1.539-1.591 0-0.872 0.667-1.573 1.505-1.573 0.428 0 0.753 0.154 1.112 0.513v-1.043c-0.376-0.205-0.701-0.291-1.095-0.291-1.351 0-2.446 1.078-2.446 2.395z"></path>
<path fill="#db8135" style="fill: var(--color4, #db8135)" d="M16.6 12.299c-1.351 0-2.446 1.060-2.446 2.36 0 1.403 1.043 2.429 2.446 2.429 1.368 0 2.446-1.043 2.446-2.395 0-1.334-1.061-2.394-2.446-2.394z"></path>
<path fill="#db8135" style="fill: var(--color4, #db8135)" d="M16.6 12.299c-1.351 0-2.446 1.060-2.446 2.36 0 1.403 1.043 2.429 2.446 2.429 1.368 0 2.446-1.043 2.446-2.395 0-1.334-1.061-2.394-2.446-2.394zM16.6 14.693v0z"></path>
<path fill="#db8135" style="fill: var(--color4, #db8135)" d="M16.6 14.693h2.446c0-1.334-1.061-2.394-2.446-2.394-1.351 0-2.446 1.060-2.446 2.36 0 1.403 1.043 2.429 2.446 2.429 1.368 0 2.446-1.043 2.446-2.395h-2.446z"></path>
<path fill="#db8137" style="fill: var(--color5, #db8137)" d="M16.6 14.693h2.446c0-1.334-1.061-2.394-2.446-2.394-1.351 0-2.446 1.060-2.446 2.36 0 1.403 1.043 2.429 2.446 2.429 1.368 0 2.446-1.043 2.446-2.395h-2.446z"></path>
<path fill="#dc8337" style="fill: var(--color6, #dc8337)" d="M16.6 14.693h2.446c0-1.334-1.061-2.394-2.446-2.394-1.351 0-2.446 1.060-2.446 2.36 0 1.403 1.043 2.429 2.446 2.429 1.368 0 2.446-1.043 2.446-2.395h-2.446z"></path>
<path fill="#dc8539" style="fill: var(--color7, #dc8539)" d="M16.6 14.693h2.446c0-1.334-1.061-2.394-2.446-2.394-1.351 0-2.446 1.060-2.446 2.36 0 1.403 1.043 2.429 2.446 2.429 1.368 0 2.446-1.043 2.446-2.395h-2.446z"></path>
<path fill="#dc853a" style="fill: var(--color8, #dc853a)" d="M16.6 14.693h2.446c0-1.334-1.061-2.394-2.446-2.394-1.351 0-2.446 1.060-2.446 2.36 0 1.403 1.043 2.429 2.446 2.429 1.368 0 2.446-1.043 2.446-2.395h-2.446z"></path>
<path fill="#dc853c" style="fill: var(--color9, #dc853c)" d="M16.6 14.693h2.446c0-1.334-1.061-2.394-2.446-2.394-1.351 0-2.446 1.060-2.446 2.36 0 1.403 1.043 2.429 2.446 2.429 1.368 0 2.446-1.043 2.446-2.395h-2.446z"></path>
<path fill="#dd873e" style="fill: var(--color10, #dd873e)" d="M16.6 14.693h2.446c0-1.334-1.061-2.394-2.446-2.394-1.351 0-2.446 1.060-2.446 2.36 0 1.403 1.043 2.429 2.446 2.429 1.368 0 2.446-1.043 2.446-2.395h-2.446z"></path>
<path fill="#dd883f" style="fill: var(--color11, #dd883f)" d="M16.6 14.693h2.446c0-1.334-1.061-2.394-2.446-2.394-1.351 0-2.446 1.060-2.446 2.36 0 1.403 1.043 2.429 2.446 2.429 1.368 0 2.446-1.043 2.446-2.395h-2.446z"></path>
<path fill="#dd8841" style="fill: var(--color12, #dd8841)" d="M16.6 14.693h2.446c0-1.334-1.061-2.394-2.446-2.394-1.351 0-2.446 1.060-2.446 2.36 0 1.403 1.043 2.429 2.446 2.429 1.368 0 2.446-1.043 2.446-2.395h-2.446z"></path>
<path fill="#de8a41" style="fill: var(--color13, #de8a41)" d="M16.6 14.693h2.446c0-1.334-1.061-2.394-2.446-2.394-1.351 0-2.446 1.060-2.446 2.36 0 1.403 1.043 2.429 2.446 2.429 1.368 0 2.446-1.043 2.446-2.395h-2.446z"></path>
<path fill="#de8a43" style="fill: var(--color14, #de8a43)" d="M16.6 14.693h2.446c0-1.334-1.061-2.394-2.446-2.394-1.351 0-2.446 1.060-2.446 2.36 0 1.403 1.043 2.429 2.446 2.429 1.368 0 2.446-1.043 2.446-2.395h-2.446z"></path>
<path fill="#de8a44" style="fill: var(--color15, #de8a44)" d="M16.6 14.693h2.446c0-1.334-1.061-2.394-2.446-2.394-1.351 0-2.446 1.060-2.446 2.36 0 1.403 1.043 2.429 2.446 2.429 1.368 0 2.446-1.043 2.446-2.395h-2.446z"></path>
<path fill="#de8c46" style="fill: var(--color16, #de8c46)" d="M16.6 14.693h2.446c0-1.334-1.061-2.394-2.446-2.394-1.351 0-2.446 1.060-2.446 2.36 0 1.403 1.043 2.429 2.446 2.429 1.368 0 2.446-1.043 2.446-2.395h-2.446z"></path>
<path fill="#df8e47" style="fill: var(--color17, #df8e47)" d="M16.6 14.693v0zM19.046 14.693c0-0.021-0-0.041-0.001-0.062v-0.001c-0-0.023-0.001-0.045-0.003-0.066l0 0.005v-0.002c-0.001-0.026-0.003-0.047-0.004-0.068l0 0.008c0-0.001 0-0.002-0-0.002-0.002-0.028-0.004-0.048-0.006-0.068l0.001 0.009c-0-0.001-0-0.002-0-0.003-0.003-0.027-0.005-0.047-0.008-0.066l0.001 0.009v-0.001c-0.004-0.034-0.007-0.053-0.010-0.071l0.002 0.017c-0-0.002-0.001-0.004-0.001-0.005-0.003-0.018-0.006-0.036-0.009-0.054l-0.001-0.006-0.005-0.029-0.007-0.034-0.003-0.016c-0.003-0.014-0.006-0.028-0.009-0.042-0.001-0.006-0.003-0.013-0.004-0.019l-0.010-0.039-0.010-0.037-0.005-0.018c-0.003-0.013-0.007-0.025-0.011-0.038l-0.006-0.020c-0.303-0.977-1.213-1.675-2.338-1.675-0.99 0-1.842 0.569-2.227 1.384-0.137 0.292-0.217 0.633-0.219 0.993v0.001c0.002 0.296 0.050 0.576 0.139 0.832l0.008 0.021 0.003 0.009c0.101 0.27 0.238 0.504 0.408 0.709l-0.003-0.004c0.44 0.525 1.11 0.844 1.892 0.844 1.111 0 2.031-0.689 2.337-1.672l0.016-0.053v-0c0.042-0.14 0.072-0.304 0.085-0.473l0.001-0.008 0-0c0.001-0.021 0.003-0.041 0.004-0.062v-0c0.002-0.037 0.003-0.081 0.003-0.126v-0z"></path>
<path fill="#df8e48" style="fill: var(--color18, #df8e48)" d="M16.6 14.693h2.429c0-0.93-0.533-1.736-1.307-2.138-0.333-0.164-0.713-0.256-1.121-0.256-0.525 0-1.011 0.161-1.41 0.432-0.615 0.437-1.019 1.152-1.019 1.962 0 0.891 0.488 1.675 1.21 2.098 0.354 0.191 0.768 0.297 1.219 0.297 0.569 0 1.088-0.181 1.499-0.488 0.564-0.446 0.929-1.136 0.929-1.906h-2.429z"></path>
<path fill="#df8e4a" style="fill: var(--color19, #df8e4a)" d="M16.6 14.693h2.394c0-1.317-1.077-2.394-2.394-2.394-0.021 0-0.041 0-0.062 0.001h-0.002c-1.288 0.034-2.332 1.098-2.332 2.394 0 0.001 0 0.002 0 0.003 0 1.048 0.668 1.94 1.602 2.274l0.017 0.005c0.241 0.074 0.502 0.113 0.775 0.113 0.334 0 0.651-0.063 0.939-0.176 0.863-0.381 1.455-1.229 1.455-2.215 0-0.001 0-0.002 0-0.003v0l-2.394-0z"></path>
<path fill="#df904a" style="fill: var(--color20, #df904a)" d="M16.6 14.693h2.377c0-1.3-1.061-2.377-2.377-2.377s-2.378 1.078-2.378 2.377c0 0.002 0 0.003 0 0.005 0 1.31 1.062 2.372 2.372 2.372 0.002 0 0.004 0 0.006 0h-0c0.001 0 0.003 0 0.005 0 1.31 0 2.372-1.062 2.372-2.372 0-0.002 0-0.004 0-0.005v0h-2.377z"></path>
<path fill="#e0914c" style="fill: var(--color21, #e0914c)" d="M16.6 14.693h2.36c0-1.3-1.061-2.343-2.36-2.343s-2.361 1.043-2.361 2.343c0 1.3 1.060 2.36 2.361 2.36s2.36-1.060 2.36-2.36h-2.36z"></path>
<path fill="#e0914e" style="fill: var(--color22, #e0914e)" d="M16.6 14.693h2.343c0-1.283-1.060-2.326-2.343-2.326s-2.343 1.043-2.343 2.326c0 1.3 1.060 2.343 2.343 2.343s2.343-1.043 2.343-2.343h-2.343z"></path>
<path fill="#df924f" style="fill: var(--color23, #df924f)" d="M16.6 14.693h2.309c0-1.266-1.026-2.309-2.309-2.309s-2.309 1.043-2.309 2.309c0 1.283 1.026 2.326 2.309 2.326s2.309-1.043 2.309-2.326h-2.309z"></path>
<path fill="#e09351" style="fill: var(--color24, #e09351)" d="M16.6 14.693h2.292c0-1.266-1.026-2.292-2.292-2.292s-2.292 1.026-2.292 2.292 1.026 2.292 2.292 2.292c1.266 0 2.292-1.026 2.292-2.292h-2.292z"></path>
<path fill="#e09552" style="fill: var(--color25, #e09552)" d="M16.6 14.693h2.275c0-1.249-1.026-2.258-2.275-2.258s-2.275 1.009-2.275 2.258c0 1.266 1.026 2.275 2.275 2.275s2.275-1.009 2.275-2.275h-2.275z"></path>
<path fill="#e09554" style="fill: var(--color26, #e09554)" d="M16.6 14.693h2.241c0-1.231-0.992-2.24-2.241-2.24s-2.258 1.009-2.258 2.241c0 1.249 1.009 2.258 2.258 2.258s2.241-1.009 2.241-2.258h-2.241z"></path>
<path fill="#e09555" style="fill: var(--color27, #e09555)" d="M16.6 14.693h2.223c0-0.001 0-0.003 0-0.004 0-1.226-0.994-2.219-2.219-2.219-0.001 0-0.003 0-0.004 0h0c-0.001 0-0.003 0-0.005 0-1.226 0-2.219 0.994-2.219 2.219 0 0.002 0 0.003 0 0.005v-0c0 1.231 0.992 2.241 2.224 2.241s2.223-1.009 2.223-2.241h-2.223z"></path>
<path fill="#e19756" style="fill: var(--color28, #e19756)" d="M16.6 14.693h2.206c0-1.214-0.992-2.206-2.206-2.206s-2.207 0.992-2.207 2.206c0 1.231 0.992 2.206 2.207 2.206 0.002 0 0.003 0 0.005 0 1.215 0 2.201-0.985 2.201-2.201 0-0.002 0-0.004 0-0.006v0h-2.206z"></path>
<path fill="#e19757" style="fill: var(--color29, #e19757)" d="M16.6 14.693h2.189c0-1.197-0.975-2.172-2.189-2.172s-2.189 0.975-2.189 2.172c0 0.002 0 0.004 0 0.007 0 1.205 0.977 2.182 2.182 2.182 0.002 0 0.005 0 0.007 0h-0c0.002 0 0.004 0 0.007 0 1.205 0 2.182-0.977 2.182-2.182 0-0.002 0-0.005 0-0.007v0h-2.189z"></path>
<path fill="#e29959" style="fill: var(--color30, #e29959)" d="M16.6 14.693h2.155c0-1.197-0.958-2.155-2.155-2.155s-2.172 0.958-2.172 2.155c0 1.197 0.975 2.172 2.172 2.172s2.155-0.975 2.155-2.172h-2.155z"></path>
<path fill="#e2995b" style="fill: var(--color31, #e2995b)" d="M16.6 14.693h2.138c0-1.18-0.958-2.138-2.138-2.138s-2.138 0.958-2.138 2.138 0.958 2.155 2.138 2.155c1.18 0 2.138-0.975 2.138-2.155h-2.138z"></path>
<path fill="#e29b5b" style="fill: var(--color32, #e29b5b)" d="M16.6 14.693h2.12c0-1.163-0.958-2.121-2.12-2.121s-2.121 0.958-2.121 2.121c0 1.18 0.958 2.121 2.121 2.121s2.12-0.941 2.12-2.121h-2.12z"></path>
<path fill="#e29b5d" style="fill: var(--color33, #e29b5d)" d="M16.6 14.693h2.104c0-1.146-0.941-2.087-2.104-2.087s-2.104 0.941-2.104 2.087c0 1.163 0.941 2.104 2.104 2.104s2.104-0.941 2.104-2.104h-2.104z"></path>
<path fill="#e39d5f" style="fill: var(--color34, #e39d5f)" d="M16.6 14.693h2.069c0-0.001 0-0.003 0-0.004 0-1.141-0.925-2.066-2.066-2.066-0.001 0-0.003 0-0.004 0h0c-1.146 0-2.070 0.924-2.070 2.070s0.924 2.087 2.070 2.087c1.146 0 2.069-0.941 2.069-2.087h-2.069z"></path>
<path fill="#e39d61" style="fill: var(--color35, #e39d61)" d="M16.6 14.693h2.052c0-1.129-0.923-2.052-2.052-2.052s-2.053 0.924-2.053 2.052c0 1.146 0.924 2.070 2.053 2.070s2.052-0.924 2.052-2.070h-2.052z"></path>
<path fill="#e39f63" style="fill: var(--color36, #e39f63)" d="M16.6 14.693h2.035c0-1.112-0.907-2.035-2.035-2.035s-2.035 0.924-2.035 2.035c0 1.129 0.906 2.035 2.035 2.035s2.035-0.906 2.035-2.035h-2.035z"></path>
<path fill="#e39f63" style="fill: var(--color36, #e39f63)" d="M16.6 14.693h2.018c0-1.112-0.907-2.001-2.018-2.001s-2.018 0.889-2.018 2.001 0.906 2.018 2.018 2.018c1.111 0 2.018-0.907 2.018-2.018h-2.018z"></path>
<path fill="#e39f64" style="fill: var(--color37, #e39f64)" d="M16.6 14.693h1.984c0-1.095-0.889-1.984-1.984-1.984s-1.984 0.889-1.984 1.984c0 1.112 0.889 2.001 1.984 2.001s1.984-0.889 1.984-2.001h-1.984z"></path>
<path fill="#e4a166" style="fill: var(--color38, #e4a166)" d="M16.6 14.693h1.967c0-1.077-0.872-1.967-1.967-1.967s-1.967 0.889-1.967 1.967c0 1.095 0.872 1.984 1.967 1.984s1.967-0.889 1.967-1.984h-1.967z"></path>
<path fill="#e4a367" style="fill: var(--color39, #e4a367)" d="M16.6 14.693h1.95c0-1.077-0.872-1.95-1.95-1.95s-1.95 0.872-1.95 1.95 0.872 1.95 1.95 1.95c1.077 0 1.95-0.872 1.95-1.95h-1.95z"></path>
<path fill="#e4a369" style="fill: var(--color40, #e4a369)" d="M16.6 14.693h1.933c0-1.060-0.872-1.916-1.933-1.916s-1.933 0.855-1.933 1.916c0 1.078 0.872 1.933 1.933 1.933s1.933-0.855 1.933-1.933h-1.933z"></path>
<path fill="#e4a36a" style="fill: var(--color41, #e4a36a)" d="M16.6 14.693h1.899c0-1.043-0.838-1.899-1.899-1.899s-1.899 0.855-1.899 1.899c0 1.060 0.838 1.916 1.899 1.916s1.899-0.855 1.899-1.916h-1.899z"></path>
<path fill="#e5a56c" style="fill: var(--color42, #e5a56c)" d="M16.6 14.693h1.881c0-0.002 0-0.003 0-0.005 0-1.036-0.84-1.876-1.876-1.876-0.002 0-0.004 0-0.005 0h0c-0.002 0-0.004 0-0.006 0-1.036 0-1.876 0.84-1.876 1.876 0 0.002 0 0.004 0 0.006v-0c0 1.043 0.838 1.899 1.882 1.899s1.881-0.855 1.881-1.899h-1.881z"></path>
<path fill="#e5a56c" style="fill: var(--color42, #e5a56c)" d="M16.6 14.693h1.864c0-1.026-0.838-1.864-1.864-1.864s-1.864 0.838-1.864 1.864c0 1.026 0.838 1.864 1.864 1.864s1.864-0.838 1.864-1.864h-1.864z"></path>
<path fill="#e5a76e" style="fill: var(--color43, #e5a76e)" d="M16.6 14.693h1.847c0-1.009-0.838-1.83-1.847-1.83s-1.847 0.821-1.847 1.83c0 1.026 0.838 1.847 1.847 1.847s1.847-0.821 1.847-1.847h-1.847z"></path>
<path fill="#e5a770" style="fill: var(--color44, #e5a770)" d="M16.6 14.693h1.813c0-0.992-0.804-1.813-1.813-1.813s-1.813 0.821-1.813 1.813c0 1.009 0.804 1.83 1.813 1.83s1.813-0.821 1.813-1.83h-1.813z"></path>
<path fill="#e6a970" style="fill: var(--color45, #e6a970)" d="M16.6 14.693h1.796c0-0.992-0.804-1.796-1.796-1.796s-1.796 0.804-1.796 1.796c0 0.992 0.804 1.796 1.796 1.796s1.796-0.804 1.796-1.796h-1.796z"></path>
<path fill="#e6a972" style="fill: var(--color46, #e6a972)" d="M16.6 14.693h1.779c0-0.975-0.804-1.779-1.779-1.779s-1.779 0.804-1.779 1.779c0 0.992 0.804 1.779 1.779 1.779s1.779-0.787 1.779-1.779h-1.779z"></path>
<path fill="#e6ab74" style="fill: var(--color47, #e6ab74)" d="M16.6 14.693h1.762c0-0.958-0.787-1.744-1.762-1.744s-1.762 0.787-1.762 1.744c0 0.001 0 0.002 0 0.002 0 0.972 0.788 1.759 1.759 1.759 0.001 0 0.002 0 0.003 0h-0c0.001 0 0.002 0 0.002 0 0.972 0 1.759-0.788 1.759-1.759 0-0.001 0-0.002 0-0.003v0h-1.762z"></path>
<path fill="#e6ab75" style="fill: var(--color48, #e6ab75)" d="M16.6 14.693h1.727c0-0.001 0-0.003 0-0.005 0-0.951-0.771-1.723-1.723-1.723-0.002 0-0.003 0-0.005 0h0c-0.001 0-0.003 0-0.005 0-0.951 0-1.723 0.771-1.723 1.723 0 0.002 0 0.003 0 0.005v-0c0 0.958 0.77 1.745 1.728 1.745s1.727-0.787 1.727-1.745h-1.727z"></path>
<path fill="#e7ad77" style="fill: var(--color49, #e7ad77)" d="M16.6 14.693h1.71c0-0.941-0.769-1.71-1.71-1.71s-1.711 0.77-1.711 1.71c0 0.958 0.77 1.71 1.711 1.71 0.002 0 0.004 0 0.006 0 0.941 0 1.704-0.763 1.704-1.704 0-0.002 0-0.004 0-0.007v0h-1.71z"></path>
<path fill="#e7ad77" style="fill: var(--color49, #e7ad77)" d="M16.6 14.693h1.693c0-0.924-0.753-1.693-1.693-1.693s-1.694 0.77-1.694 1.693c0 0.941 0.753 1.693 1.694 1.693 0.002 0 0.005 0 0.007 0 0.931 0 1.686-0.755 1.686-1.686 0-0.002 0-0.005-0-0.008v0h-1.693z"></path>
<path fill="#e8af79" style="fill: var(--color50, #e8af79)" d="M16.6 14.693h1.676c0-0.924-0.753-1.659-1.676-1.659s-1.676 0.736-1.676 1.659c0 0.924 0.753 1.676 1.676 1.676s1.676-0.753 1.676-1.676h-1.676z"></path>
<path fill="#e8af7b" style="fill: var(--color51, #e8af7b)" d="M16.6 14.693h1.642c0-0.906-0.735-1.642-1.642-1.642s-1.642 0.735-1.642 1.642c0 0.924 0.735 1.659 1.642 1.659s1.642-0.735 1.642-1.659h-1.642z"></path>
<path fill="#e8b17b" style="fill: var(--color52, #e8b17b)" d="M16.6 14.693h1.625c0-0.889-0.718-1.625-1.625-1.625s-1.625 0.736-1.625 1.625c0 0.906 0.718 1.625 1.625 1.625s1.625-0.718 1.625-1.625h-1.625z"></path>
<path fill="#e8b17d" style="fill: var(--color53, #e8b17d)" d="M16.6 14.693h1.608c0-0.001 0-0.001 0-0.002 0-0.887-0.719-1.606-1.606-1.606-0.001 0-0.001 0-0.002 0h0c-0.001 0-0.001 0-0.002 0-0.887 0-1.606 0.719-1.606 1.606 0 0.001 0 0.001 0 0.002v-0c0 0.001 0 0.001 0 0.002 0 0.887 0.719 1.606 1.606 1.606 0.001 0 0.001 0 0.002 0h-0c0 0 0.001 0 0.002 0 0.887 0 1.606-0.719 1.606-1.606 0-0.001 0-0.001 0-0.002v0h-1.608z"></path>
<path fill="#e8b17e" style="fill: var(--color54, #e8b17e)" d="M16.6 14.693h1.59c0-0.872-0.718-1.573-1.59-1.573s-1.591 0.701-1.591 1.573 0.718 1.591 1.591 1.591c0.872 0 1.59-0.718 1.59-1.591h-1.59z"></path>
<path fill="#e9b381" style="fill: var(--color55, #e9b381)" d="M16.6 14.693h1.556c0-0.855-0.701-1.556-1.556-1.556-0.002 0-0.003 0-0.005 0-0.857 0-1.551 0.694-1.551 1.551 0 0.002 0 0.004 0 0.005v-0c0 0.872 0.684 1.573 1.557 1.573 0.855 0 1.556-0.701 1.556-1.573h-1.556z"></path>
<path fill="#e9b381" style="fill: var(--color55, #e9b381)" d="M16.6 14.693h1.539c0-0.002 0-0.004 0-0.007 0-0.847-0.686-1.533-1.533-1.533-0.002 0-0.004 0-0.007 0h0c-0.002 0-0.004 0-0.006 0-0.847 0-1.533 0.686-1.533 1.533 0 0.002 0 0.004 0 0.007v-0c0 0.002 0 0.004 0 0.006 0 0.847 0.686 1.533 1.533 1.533 0.002 0 0.004 0 0.007 0h-0c0.002 0 0.004 0 0.006 0 0.847 0 1.533-0.686 1.533-1.533 0-0.002 0-0.005 0-0.007v0h-1.539z"></path>
<path fill="#e9b583" style="fill: var(--color56, #e9b583)" d="M16.6 14.693h1.522c0-0.838-0.684-1.522-1.522-1.522s-1.522 0.684-1.522 1.522 0.684 1.522 1.522 1.522c0.838 0 1.522-0.684 1.522-1.522h-1.522z"></path>
<path fill="#e9b584" style="fill: var(--color57, #e9b584)" d="M16.6 14.693h1.505c0-0.821-0.684-1.488-1.505-1.488s-1.505 0.667-1.505 1.488c0 0.838 0.684 1.505 1.505 1.505s1.505-0.667 1.505-1.505h-1.505z"></path>
<path fill="#eab786" style="fill: var(--color58, #eab786)" d="M16.6 14.693h1.471c0-0.804-0.65-1.471-1.471-1.471s-1.471 0.667-1.471 1.471c0 0.821 0.65 1.488 1.471 1.488s1.471-0.667 1.471-1.488h-1.471z"></path>
<path fill="#eab788" style="fill: var(--color59, #eab788)" d="M16.6 14.693h1.454c0-0 0-0.001 0-0.001 0-0.802-0.65-1.452-1.452-1.452-0 0-0.001 0-0.001 0h0c-0.804 0-1.454 0.65-1.454 1.454s0.65 1.454 1.454 1.454c0 0 0.001 0 0.001 0 0.802 0 1.452-0.65 1.452-1.452 0-0 0-0.001 0-0.001v0h-1.454z"></path>
<path fill="#ebb989" style="fill: var(--color60, #ebb989)" d="M16.6 14.693h1.436c0-0.787-0.65-1.437-1.436-1.437s-1.437 0.65-1.437 1.437c0 0.804 0.65 1.437 1.437 1.437s1.436-0.633 1.436-1.437h-1.436z"></path>
<path fill="#ebb98a" style="fill: var(--color61, #ebb98a)" d="M16.6 14.693h1.42c0-0.77-0.633-1.402-1.42-1.402s-1.42 0.633-1.42 1.402c0 0.001 0 0.002 0 0.004 0 0.782 0.634 1.416 1.416 1.416 0.001 0 0.003 0 0.004 0h-0c0.001 0 0.002 0 0.003 0 0.782 0 1.416-0.634 1.416-1.416 0-0.001 0-0.002 0-0.004v0h-1.42z"></path>
<path fill="#ebbb8c" style="fill: var(--color62, #ebbb8c)" d="M16.6 14.693h1.385c0-0.002 0-0.004 0-0.006 0-0.762-0.618-1.38-1.38-1.38-0.002 0-0.004 0-0.006 0h0c-0.77 0-1.386 0.616-1.386 1.385s0.616 1.403 1.386 1.403c0.769 0 1.385-0.633 1.385-1.403h-1.385z"></path>
<path fill="#ebbb8c" style="fill: var(--color62, #ebbb8c)" d="M16.6 14.693h1.368c0-0.753-0.615-1.368-1.368-1.368s-1.368 0.616-1.368 1.368c0 0.77 0.616 1.368 1.368 1.368s1.368-0.599 1.368-1.368h-1.368z"></path>
<path fill="#ecbd8f" style="fill: var(--color63, #ecbd8f)" d="M16.6 14.693h1.351c0-0.735-0.598-1.351-1.351-1.351s-1.351 0.616-1.351 1.351c0 0.002-0 0.005-0 0.008 0 0.742 0.601 1.343 1.343 1.343 0.003 0 0.006 0 0.009-0h-0c0.002 0 0.005 0 0.008 0 0.742 0 1.343-0.601 1.343-1.343 0-0.003 0-0.006-0-0.009v0h-1.351z"></path>
<path fill="#ecbd90" style="fill: var(--color64, #ecbd90)" d="M16.6 14.693h1.334c0-0.735-0.598-1.317-1.334-1.317s-1.334 0.581-1.334 1.317 0.599 1.334 1.334 1.334c0.735 0 1.334-0.599 1.334-1.334h-1.334z"></path>
<path fill="#ecbf93" style="fill: var(--color65, #ecbf93)" d="M16.6 14.693h1.3c0-0 0-0 0-0.001 0-0.718-0.582-1.299-1.299-1.299-0 0-0 0-0 0h0c-0 0-0 0-0.001 0-0.718 0-1.299 0.582-1.299 1.299 0 0 0 0 0 0.001v-0c0 0.718 0.582 1.317 1.3 1.317s1.3-0.599 1.3-1.317h-1.3z"></path>
<path fill="#ecbf93" style="fill: var(--color65, #ecbf93)" d="M16.6 14.693h1.283c0-0.701-0.582-1.283-1.283-1.283-0.719 0-1.283 0.582-1.283 1.283 0 0.718 0.564 1.283 1.283 1.283 0.701 0 1.283-0.564 1.283-1.283h-1.283z"></path>
<path fill="#edc195" style="fill: var(--color66, #edc195)" d="M16.6 14.693h1.266c0-0.701-0.564-1.266-1.266-1.266s-1.266 0.564-1.266 1.266 0.564 1.266 1.266 1.266c0.001 0 0.002 0 0.003 0 0.697 0 1.263-0.565 1.263-1.263 0-0.001 0-0.002 0-0.003v0h-1.266z"></path>
<path fill="#edc196" style="fill: var(--color67, #edc196)" d="M16.6 14.693h1.248c0-0.684-0.564-1.231-1.248-1.231s-1.249 0.547-1.249 1.231c0 0.684 0.564 1.249 1.249 1.249s1.248-0.564 1.248-1.249h-1.248z"></path>
<path fill="#eec397" style="fill: var(--color68, #eec397)" d="M16.6 14.693h1.214c0-0.667-0.547-1.214-1.214-1.214s-1.215 0.547-1.215 1.214c0 0.684 0.547 1.231 1.215 1.231s1.214-0.547 1.214-1.231h-1.214z"></path>
<path fill="#eec399" style="fill: var(--color69, #eec399)" d="M16.6 14.693h1.197c0-0.65-0.53-1.197-1.197-1.197s-1.197 0.547-1.197 1.197c0 0.002-0 0.005-0 0.007 0 0.657 0.533 1.19 1.19 1.19 0.003 0 0.005 0 0.008-0h-0c0.002 0 0.005 0 0.007 0 0.657 0 1.19-0.533 1.19-1.19 0-0.003 0-0.005-0-0.008v0h-1.197z"></path>
<path fill="#eec59b" style="fill: var(--color70, #eec59b)" d="M16.6 14.693h1.18c0-0.65-0.53-1.18-1.18-1.18s-1.18 0.53-1.18 1.18c0 0.65 0.53 1.18 1.18 1.18s1.18-0.53 1.18-1.18h-1.18z"></path>
<path fill="#eec69d" style="fill: var(--color71, #eec69d)" d="M16.6 14.693h1.163c0-0.633-0.53-1.146-1.163-1.146s-1.163 0.513-1.163 1.146c0 0.65 0.53 1.163 1.163 1.163s1.163-0.513 1.163-1.163h-1.163z"></path>
<path fill="#eec69f" style="fill: var(--color72, #eec69f)" d="M16.6 14.693h1.129c0-0.616-0.496-1.129-1.129-1.129s-1.129 0.513-1.129 1.129c0 0.633 0.496 1.146 1.129 1.146s1.129-0.513 1.129-1.146h-1.129z"></path>
<path fill="#efc89f" style="fill: var(--color73, #efc89f)" d="M16.6 14.693h1.111c0-0.001 0-0.001 0-0.002 0-0.613-0.497-1.11-1.11-1.11-0.001 0-0.001 0-0.002 0h0c-0.001 0-0.002 0-0.002 0-0.613 0-1.11 0.497-1.11 1.11 0 0.001 0 0.002 0 0.002v-0c0 0.001 0 0.001 0 0.002 0 0.613 0.497 1.11 1.11 1.11 0.001 0 0.002 0 0.002 0h-0c0.001 0 0.001 0 0.002 0 0.613 0 1.109-0.497 1.109-1.109 0-0.001 0-0.002 0-0.002v0h-1.111z"></path>
<path fill="#efc8a1" style="fill: var(--color74, #efc8a1)" d="M16.6 14.693h1.095c0-0.598-0.496-1.095-1.095-1.095s-1.095 0.496-1.095 1.095c0 0.001 0 0.002 0 0.003 0 0.603 0.489 1.091 1.091 1.091 0.001 0 0.002 0 0.004 0h-0c0.001 0 0.002 0 0.003 0 0.603 0 1.091-0.489 1.091-1.091 0-0.001 0-0.002 0-0.004v0h-1.095z"></path>
<path fill="#efcaa3" style="fill: var(--color75, #efcaa3)" d="M16.6 14.693h1.077c0-0.581-0.479-1.060-1.077-1.060s-1.078 0.479-1.078 1.060c0 0.001 0 0.003 0 0.005 0 0.593 0.48 1.073 1.073 1.073 0.002 0 0.003 0 0.005 0h-0c0.001 0 0.003 0 0.004 0 0.593 0 1.073-0.48 1.073-1.073 0-0.002 0-0.003 0-0.005v0h-1.077z"></path>
<path fill="#efcaa3" style="fill: var(--color75, #efcaa3)" d="M16.6 14.693h1.043c0-0.002 0-0.004 0-0.007 0-0.572-0.464-1.036-1.036-1.036-0.002 0-0.005 0-0.007 0h0c-0.002 0-0.004-0-0.007-0-0.573 0-1.037 0.464-1.037 1.037 0 0.002 0 0.005 0 0.007v-0c0 0.582 0.462 1.060 1.044 1.060s1.043-0.479 1.043-1.060h-1.043z"></path>
<path fill="#f0cca6" style="fill: var(--color76, #f0cca6)" d="M16.6 14.693h1.026c0-0.564-0.462-1.026-1.026-1.026s-1.026 0.462-1.026 1.026 0.462 1.026 1.026 1.026c0.564 0 1.026-0.462 1.026-1.026h-1.026z"></path>
<path fill="#f0cca8" style="fill: var(--color77, #f0cca8)" d="M16.6 14.693h1.009c0-0.547-0.462-1.009-1.009-1.009-0.565 0-1.009 0.462-1.009 1.009 0 0.564 0.445 1.009 1.009 1.009 0.547 0 1.009-0.445 1.009-1.009h-1.009z"></path>
<path fill="#f1ceaa" style="fill: var(--color78, #f1ceaa)" d="M16.6 14.693h0.992c0-0.547-0.445-0.975-0.992-0.975s-0.992 0.428-0.992 0.975c0 0.548 0.444 0.992 0.992 0.992h0c0.548-0 0.992-0.444 0.992-0.992v-0h-0.992z"></path>
<path fill="#f1ceaa" style="fill: var(--color78, #f1ceaa)" d="M16.6 14.693h0.958c0-0.001 0-0.001 0-0.002 0-0.528-0.428-0.956-0.956-0.956-0.001 0-0.001 0-0.002 0h0c-0.53 0-0.958 0.427-0.958 0.958s0.428 0.975 0.958 0.975c0.53 0 0.958-0.445 0.958-0.975h-0.958z"></path>
<path fill="#f1d0ad" style="fill: var(--color79, #f1d0ad)" d="M16.6 14.693h0.941c0-0.513-0.428-0.941-0.941-0.941s-0.941 0.428-0.941 0.941c0 0.001 0 0.002 0 0.003 0 0.518 0.42 0.938 0.938 0.938 0.001 0 0.002 0 0.003 0h-0c0.001 0 0.002 0 0.003 0 0.518 0 0.938-0.42 0.938-0.938 0-0.001 0-0.002 0-0.003v0h-0.941z"></path>
<path fill="#f1d0ae" style="fill: var(--color80, #f1d0ae)" d="M16.6 14.693h0.923c0-0.496-0.411-0.924-0.923-0.924s-0.924 0.427-0.924 0.924c0 0.001 0 0.003 0 0.004 0 0.508 0.412 0.92 0.92 0.92 0.001 0 0.003 0 0.004 0h-0c0.001 0 0.002 0 0.004 0 0.508 0 0.92-0.412 0.92-0.92 0-0.001 0-0.003 0-0.004v0h-0.923z"></path>
<path fill="#f2d2b1" style="fill: var(--color81, #f2d2b1)" d="M16.6 14.693h0.906c0-0.496-0.411-0.889-0.906-0.889s-0.907 0.393-0.907 0.889 0.411 0.906 0.907 0.906c0.496 0 0.906-0.411 0.906-0.906h-0.906z"></path>
<path fill="#f2d2b3" style="fill: var(--color82, #f2d2b3)" d="M16.6 14.693h0.872c0-0.479-0.394-0.872-0.872-0.872s-0.872 0.393-0.872 0.872c0 0.496 0.394 0.889 0.872 0.889s0.872-0.393 0.872-0.889h-0.872z"></path>
<path fill="#f3d4b4" style="fill: var(--color83, #f3d4b4)" d="M16.6 14.693h0.855c0-0.462-0.377-0.855-0.855-0.855s-0.855 0.393-0.855 0.855c0 0.479 0.377 0.855 0.855 0.855s0.855-0.376 0.855-0.855h-0.855z"></path>
<path fill="#f3d4b5" style="fill: var(--color84, #f3d4b5)" d="M16.6 14.693h0.838c-0.001-0.463-0.375-0.837-0.838-0.838h-0c-0.462 0-0.838 0.376-0.838 0.838s0.376 0.838 0.838 0.838c0.462-0.001 0.837-0.376 0.838-0.838v-0h-0.838z"></path>
<path fill="#f3d4b7" style="fill: var(--color85, #f3d4b7)" d="M16.6 14.693h0.821c0-0.445-0.376-0.804-0.821-0.804s-0.821 0.359-0.821 0.804c0 0.462 0.376 0.821 0.821 0.821s0.821-0.359 0.821-0.821h-0.821z"></path>
<path fill="#f3d6b8" style="fill: var(--color86, #f3d6b8)" d="M16.6 14.693h0.787c0-0.001 0-0.001 0-0.002 0-0.433-0.351-0.785-0.785-0.785-0.001 0-0.001 0-0.002 0h0c-0.001 0-0.002 0-0.002 0-0.433 0-0.785 0.351-0.785 0.785 0 0.001 0 0.002 0 0.002v-0c0 0.445 0.342 0.804 0.787 0.804s0.787-0.359 0.787-0.804h-0.787z"></path>
<path fill="#f4d8ba" style="fill: var(--color87, #f4d8ba)" d="M16.6 14.693h0.769c0-0.001 0-0.002 0-0.003 0-0.423-0.343-0.766-0.766-0.766-0.001 0-0.002 0-0.003 0h0c-0.428 0-0.77 0.342-0.77 0.77s0.342 0.77 0.77 0.77c0.001 0 0.002 0 0.003 0 0.423 0 0.766-0.343 0.766-0.766 0-0.001 0-0.002 0-0.003v0h-0.769z"></path>
<path fill="#f4d9bc" style="fill: var(--color88, #f4d9bc)" d="M16.6 14.693h0.753c0-0.411-0.342-0.753-0.753-0.753s-0.753 0.342-0.753 0.753c0 0.428 0.342 0.753 0.753 0.753s0.753-0.325 0.753-0.753h-0.753z"></path>
<path fill="#f4d9be" style="fill: var(--color89, #f4d9be)" d="M16.6 14.693h0.735c0-0.393-0.325-0.718-0.735-0.718s-0.736 0.325-0.736 0.718c0 0.411 0.325 0.735 0.736 0.735s0.735-0.325 0.735-0.735h-0.735z"></path>
<path fill="#f4dbbf" style="fill: var(--color90, #f4dbbf)" d="M16.6 14.693h0.701c0-0.393-0.308-0.701-0.701-0.701s-0.701 0.308-0.701 0.701 0.308 0.718 0.701 0.718c0.393 0 0.701-0.325 0.701-0.718h-0.701z"></path>
<path fill="#f4dbc0" style="fill: var(--color91, #f4dbc0)" d="M16.6 14.693h0.684c-0.001-0.377-0.307-0.683-0.684-0.684h-0c-0.377 0-0.684 0.308-0.684 0.684s0.308 0.684 0.684 0.684c0.377-0.001 0.683-0.307 0.684-0.684v-0h-0.684z"></path>
<path fill="#f5ddc3" style="fill: var(--color92, #f5ddc3)" d="M16.6 14.693h0.667c0-0.359-0.308-0.667-0.667-0.667s-0.667 0.308-0.667 0.667c0 0.376 0.308 0.667 0.667 0.667s0.667-0.291 0.667-0.667h-0.667z"></path>
<path fill="#f5ddc3" style="fill: var(--color92, #f5ddc3)" d="M16.6 14.693h0.65c0-0.342-0.291-0.633-0.65-0.633s-0.65 0.291-0.65 0.633c0 0.359 0.291 0.65 0.65 0.65s0.65-0.291 0.65-0.65v0h-0.65z"></path>
<path fill="#f6dfc6" style="fill: var(--color93, #f6dfc6)" d="M16.6 14.693h0.615c0-0.342-0.273-0.616-0.615-0.616s-0.616 0.274-0.616 0.616 0.274 0.633 0.616 0.633 0.615-0.291 0.615-0.633h-0.615z"></path>
<path fill="#f6dfc7" style="fill: var(--color94, #f6dfc7)" d="M16.6 14.693h0.598c0-0.325-0.274-0.598-0.598-0.598s-0.599 0.274-0.599 0.598c0 0.342 0.274 0.599 0.599 0.599s0.598-0.257 0.598-0.599h-0.598z"></path>
<path fill="#f6e1ca" style="fill: var(--color95, #f6e1ca)" d="M16.6 14.693h0.581c0-0.308-0.256-0.581-0.581-0.581s-0.582 0.274-0.582 0.581c0 0.001-0 0.003-0 0.005 0 0.319 0.258 0.577 0.577 0.577 0.002 0 0.003 0 0.005-0h-0c0.001 0 0.003 0 0.005 0 0.319 0 0.577-0.258 0.577-0.577 0-0.002 0-0.003-0-0.005v0h-0.581z"></path>
<path fill="#f6e1cc" style="fill: var(--color96, #f6e1cc)" d="M16.6 14.693h0.564c0-0.308-0.256-0.547-0.564-0.547s-0.565 0.239-0.565 0.547c0 0.308 0.256 0.564 0.565 0.564s0.564-0.257 0.564-0.564h-0.564z"></path>
<path fill="#f7e3cd" style="fill: var(--color97, #f7e3cd)" d="M16.6 14.693h0.53c-0.002-0.292-0.238-0.529-0.53-0.53h-0c-0.292 0.001-0.529 0.238-0.53 0.53v0c0 0.308 0.24 0.547 0.53 0.547s0.53-0.239 0.53-0.547h-0.53z"></path>
<path fill="#f7e3cf" style="fill: var(--color98, #f7e3cf)" d="M16.6 14.693h0.513c0-0.274-0.222-0.513-0.513-0.513s-0.513 0.239-0.513 0.513c0 0.291 0.222 0.513 0.513 0.513s0.513-0.222 0.513-0.513h-0.513z"></path>
<path fill="#f7e3d0" style="fill: var(--color99, #f7e3d0)" d="M16.6 14.693h0.496c-0-0.274-0.222-0.496-0.496-0.496h-0c-0.268 0.007-0.483 0.226-0.483 0.496s0.215 0.489 0.483 0.496h0.001c0.274-0 0.496-0.222 0.496-0.496v0h-0.496z"></path>
<path fill="#f8e5d1" style="fill: var(--color100, #f8e5d1)" d="M16.6 14.693h0.479c0-0.257-0.222-0.462-0.479-0.462s-0.479 0.205-0.479 0.462c0 0 0 0.001 0 0.001 0 0.264 0.214 0.478 0.478 0.478 0 0 0.001 0 0.001 0h-0c0 0 0.001 0 0.001 0 0.264 0 0.478-0.214 0.478-0.478 0-0 0-0.001 0-0.001v0h-0.479z"></path>
<path fill="#f8e8d4" style="fill: var(--color101, #f8e8d4)" d="M16.6 14.693h0.445c0-0.239-0.188-0.445-0.445-0.445-0.001 0-0.002 0-0.003 0-0.244 0-0.442 0.198-0.442 0.442 0 0.001 0 0.002 0 0.003v-0c0 0.257 0.188 0.462 0.445 0.462s0.445-0.205 0.445-0.462h-0.445z"></path>
<path fill="#f8e8d6" style="fill: var(--color102, #f8e8d6)" d="M16.6 14.693h0.427c0-0.001 0-0.003 0-0.004 0-0.234-0.19-0.423-0.423-0.423-0.001 0-0.003 0-0.004 0h0c-0.001 0-0.003-0-0.004-0-0.234 0-0.424 0.19-0.424 0.424 0 0.001 0 0.003 0 0.004v-0c0 0.001-0 0.003-0 0.004 0 0.234 0.19 0.423 0.423 0.423 0.002 0 0.003 0 0.005-0h-0c0.001 0 0.003 0 0.004 0 0.234 0 0.423-0.19 0.423-0.423 0-0.002 0-0.003-0-0.005v0h-0.427z"></path>
<path fill="#f8e8d8" style="fill: var(--color103, #f8e8d8)" d="M16.6 14.693h0.411c0-0.222-0.188-0.393-0.411-0.393s-0.411 0.171-0.411 0.393 0.188 0.411 0.411 0.411c0.222 0 0.411-0.188 0.411-0.411h-0.411z"></path>
<path fill="#f9ead9" style="fill: var(--color104, #f9ead9)" d="M16.6 14.693h0.393c0-0.205-0.188-0.376-0.393-0.376s-0.394 0.171-0.394 0.376c0 0.222 0.188 0.393 0.394 0.393s0.393-0.171 0.393-0.393h-0.393z"></path>
<path fill="#faecdc" style="fill: var(--color105, #faecdc)" d="M16.6 14.693h0.359c0-0.188-0.154-0.359-0.359-0.359s-0.359 0.171-0.359 0.359c0 0.205 0.154 0.376 0.359 0.376s0.359-0.171 0.359-0.376h-0.359z"></path>
<path fill="#faecdd" style="fill: var(--color106, #faecdd)" d="M16.6 14.693h0.342c-0.001-0.189-0.153-0.341-0.342-0.342h-0c-0.188 0-0.342 0.154-0.342 0.342s0.154 0.342 0.342 0.342c0.189-0.001 0.342-0.153 0.342-0.342v-0h-0.342z"></path>
<path fill="#faecdf" style="fill: var(--color107, #faecdf)" d="M16.6 14.693h0.325c0-0.171-0.154-0.308-0.325-0.308s-0.325 0.137-0.325 0.308c0 0.188 0.154 0.325 0.325 0.325 0.179 0 0.325-0.145 0.325-0.325 0-0 0-0 0-0v0h-0.325z"></path>
<path fill="#faeee0" style="fill: var(--color108, #faeee0)" d="M16.6 14.693h0.308c0-0.154-0.137-0.291-0.308-0.291s-0.308 0.137-0.308 0.291c0 0.171 0.137 0.308 0.308 0.308 0 0 0.001 0 0.001 0 0.169 0 0.307-0.137 0.307-0.307 0-0 0-0.001 0-0.001v0h-0.308z"></path>
<path fill="#fbf0e3" style="fill: var(--color109, #fbf0e3)" d="M16.6 14.693h0.274c0-0.154-0.12-0.274-0.274-0.274s-0.274 0.12-0.274 0.274 0.12 0.291 0.274 0.291c0.154 0 0.274-0.137 0.274-0.291h-0.274z"></path>
<path fill="#fbf1e5" style="fill: var(--color110, #fbf1e5)" d="M16.6 14.693h0.256c0-0.137-0.12-0.257-0.256-0.257s-0.257 0.12-0.257 0.257c0 0.154 0.12 0.257 0.257 0.257s0.256-0.103 0.256-0.257h-0.256z"></path>
<path fill="#fbf1e7" style="fill: var(--color111, #fbf1e7)" d="M16.6 14.693h0.239c0-0.12-0.103-0.222-0.239-0.222s-0.24 0.103-0.24 0.222c0 0.137 0.103 0.24 0.24 0.24s0.239-0.103 0.239-0.24h-0.239z"></path>
<path fill="#fcf3e8" style="fill: var(--color112, #fcf3e8)" d="M16.6 14.693h0.222c0-0.12-0.102-0.205-0.222-0.205s-0.222 0.085-0.222 0.205c0 0.12 0.102 0.222 0.222 0.222s0.222-0.103 0.222-0.222h-0.222z"></path>
<path fill="#fcf3ea" style="fill: var(--color113, #fcf3ea)" d="M16.6 14.693h0.188c0-0.103-0.086-0.188-0.188-0.188s-0.188 0.086-0.188 0.188c0 0.12 0.086 0.205 0.188 0.205s0.188-0.085 0.188-0.205h-0.188z"></path>
<path fill="#fcf5ed" style="fill: var(--color114, #fcf5ed)" d="M16.6 14.693h0.171c0-0.085-0.068-0.171-0.171-0.171s-0.171 0.085-0.171 0.171c0 0.103 0.068 0.171 0.171 0.171s0.171-0.068 0.171-0.171h-0.171z"></path>
<path fill="#fcf5ef" style="fill: var(--color115, #fcf5ef)" d="M16.6 14.693h0.154c0-0.085-0.068-0.137-0.154-0.137s-0.154 0.051-0.154 0.137 0.068 0.154 0.154 0.154c0 0 0 0 0 0 0.085 0 0.153-0.069 0.153-0.153 0-0 0-0 0-0.001v0h-0.154z"></path>
<path fill="#fdf8f1" style="fill: var(--color116, #fdf8f1)" d="M16.6 14.693h0.136c0-0.068-0.068-0.12-0.136-0.12s-0.137 0.051-0.137 0.12c0 0.068 0.068 0.137 0.137 0.137s0.136-0.069 0.136-0.137h-0.136z"></path>
<path fill="#fdf8f3" style="fill: var(--color117, #fdf8f3)" d="M16.6 14.693h0.102c0-0.051-0.051-0.103-0.102-0.103s-0.103 0.051-0.103 0.103c0 0.068 0.051 0.12 0.103 0.12s0.102-0.051 0.102-0.12h-0.102z"></path>
<path fill="#fdf8f5" style="fill: var(--color118, #fdf8f5)" d="M16.6 14.693h0.085c0-0.034-0.034-0.085-0.085-0.085s-0.086 0.051-0.086 0.085c0 0.051 0.034 0.085 0.086 0.085s0.085-0.034 0.085-0.085h-0.085z"></path>
<path fill="#fefbf6" style="fill: var(--color119, #fefbf6)" d="M16.6 14.693h0.068c0-0.034-0.034-0.051-0.068-0.051s-0.068 0.017-0.068 0.051 0.034 0.068 0.068 0.068c0.034 0 0.068-0.034 0.068-0.068h-0.068z"></path>
<path fill="#fffffb" style="fill: var(--color120, #fffffb)" d="M16.6 14.693h0.034c0-0.017-0.017-0.034-0.034-0.034s-0.052 0.017-0.052 0.034c0 0.034 0.034 0.051 0.052 0.051s0.034-0.017 0.034-0.051h-0.034z"></path>
<path fill="#fff" style="fill: var(--color1, #fff)" d="M16.6 14.693h0.017s0-0.017-0.017-0.017c-0.017 0-0.017 0.017-0.017 0.017 0 0.017 0 0.034 0.017 0.034s0.017-0.017 0.017-0.034h-0.017z"></path>
<path fill="#000" style="fill: var(--color3, #000)" d="M21.064 15.48l-1.214-3.079h-0.992l1.95 4.703h0.479l1.984-4.703h-0.975l-1.231 3.079zM23.681 16.985h2.531v-0.77h-1.642v-1.231h1.573v-0.787h-1.573v-1.009h1.642v-0.787h-2.531v4.584zM29.753 13.752c0-0.855-0.582-1.351-1.625-1.351h-1.317v4.584h0.889v-1.83h0.12l1.231 1.83h1.095l-1.437-1.933c0.667-0.137 1.043-0.598 1.043-1.3zM27.957 14.522h-0.256v-1.402h0.274c0.564 0 0.855 0.239 0.855 0.684 0 0.462-0.29 0.718-0.872 0.718zM1.615 18.331v0.411h0.507v0.166h-0.507v0.716h-0.182v-1.459h0.706v0.166h-0.524zM2.972 18.165h0.182v1.459h-0.182v-1.459zM4.035 18.095l1.094 1.148v-1.078h0.182v1.519l-1.095-1.147v1.087h-0.181v-1.529zM6.998 19.092h-0.52l0.26-0.591 0.26 0.591zM7.072 19.258l0.166 0.365h0.196l-0.697-1.521-0.697 1.521h0.195l0.167-0.365h0.669zM8.165 18.095l1.095 1.148v-1.078h0.182v1.519l-1.097-1.147v1.087h-0.181v-1.529zM11.388 18.444c-0.104-0.093-0.248-0.143-0.385-0.143-0.326 0-0.576 0.273-0.576 0.596 0 0.319 0.247 0.592 0.573 0.592 0.143 0 0.28-0.054 0.388-0.151v0.215c-0.11 0.063-0.242 0.101-0.383 0.102h-0c-0.417 0-0.761-0.331-0.761-0.753 0-0.432 0.346-0.769 0.777-0.769 0.128 0 0.257 0.032 0.367 0.099v0.211h0zM12.225 18.165h0.181v1.459h-0.181v-1.459zM14.106 19.092h-0.519l0.261-0.591 0.258 0.591zM14.181 19.258l0.167 0.365h0.195l-0.696-1.521-0.697 1.521h0.195l0.166-0.365h0.669zM15.472 19.458h0.443v0.166h-0.625v-1.459h0.181v1.293zM18.493 18.442c-0.053-0.091-0.123-0.138-0.234-0.138-0.116 0-0.245 0.079-0.245 0.207 0 0.114 0.114 0.174 0.204 0.209l0.104 0.041c0.208 0.081 0.363 0.195 0.363 0.439 0 0.265-0.206 0.455-0.466 0.455-0.236 0-0.42-0.174-0.45-0.408l0.183-0.038c-0.002 0.16 0.125 0.276 0.281 0.276 0.157 0 0.269-0.131 0.269-0.285 0-0.156-0.125-0.224-0.251-0.277l-0.1-0.042c-0.167-0.072-0.318-0.166-0.318-0.37 0-0.236 0.209-0.378 0.43-0.378 0.162 0 0.296 0.080 0.375 0.221l-0.145 0.088zM19.509 18.165h0.784v0.166h-0.602v0.409h0.585v0.166h-0.585v0.552h0.602v0.166h-0.784v-1.459zM21.326 18.327h0.047c0.182 0 0.398 0.033 0.398 0.262 0 0.232-0.202 0.266-0.388 0.266h-0.057v-0.528h0zM21.59 18.989c0.211-0.026 0.35-0.199 0.35-0.409 0-0.139-0.070-0.277-0.192-0.349-0.116-0.066-0.255-0.067-0.384-0.067h-0.22v1.459h0.182v-0.616h0.075l0.43 0.616h0.22l-0.46-0.634zM23.3 19.244l0.433-1.080h0.2l-0.633 1.537-0.634-1.537h0.199l0.435 1.080zM24.676 18.165h0.182v1.459h-0.182v-1.459zM26.82 18.444c-0.105-0.093-0.249-0.143-0.387-0.143-0.326 0-0.576 0.273-0.576 0.596 0 0.319 0.247 0.592 0.572 0.592 0.144 0 0.282-0.054 0.39-0.151v0.215c-0.11 0.063-0.243 0.101-0.384 0.102h-0c-0.416 0-0.761-0.331-0.761-0.753 0-0.432 0.348-0.769 0.777-0.769 0.128 0 0.258 0.032 0.369 0.099v0.211h-0zM27.661 18.165h0.784v0.166h-0.601v0.409h0.584v0.166h-0.584v0.552h0.601v0.166h-0.784v-1.459zM29.942 18.442c-0.053-0.091-0.123-0.138-0.233-0.138-0.116 0-0.244 0.079-0.244 0.207 0 0.114 0.113 0.174 0.203 0.209l0.105 0.041c0.206 0.081 0.361 0.195 0.361 0.439 0 0.265-0.205 0.455-0.466 0.455-0.235 0-0.421-0.174-0.45-0.408l0.183-0.038c-0.002 0.16 0.127 0.276 0.283 0.276s0.269-0.131 0.269-0.285c0-0.156-0.127-0.224-0.252-0.277l-0.1-0.042c-0.167-0.072-0.318-0.166-0.318-0.37 0-0.236 0.209-0.378 0.43-0.378 0.162 0 0.296 0.080 0.376 0.221l-0.147 0.088zM30.275 12.808c0 0.035-0.024 0.054-0.073 0.054h-0.017v-0.105h0.018c0.048 0 0.072 0.017 0.072 0.051zM30.418 13.085l-0.133-0.167c0.057-0.015 0.089-0.056 0.089-0.113 0-0.079-0.055-0.124-0.154-0.124h-0.129v0.404h0.095v-0.156l0.113 0.156h0.118zM30.588 12.883c0-0.193-0.157-0.352-0.347-0.352-0.001 0-0.002 0-0.002 0-0.194 0-0.35 0.157-0.35 0.35 0 0.001 0 0.001 0 0.002v-0c0 0.196 0.158 0.352 0.353 0.352 0.19-0 0.347-0.159 0.347-0.352zM30.517 12.884c0 0.158-0.125 0.288-0.278 0.288-0.154 0-0.281-0.129-0.281-0.288 0-0.161 0.126-0.289 0.281-0.289 0.153 0 0.278 0.13 0.278 0.289z"></path>
</symbol>
<symbol id="icon-mastercard" viewBox="0 0 32 32">
<path fill="#fff" style="fill: var(--color1, #fff)" d="M0 0h32v32h-32v-32z"></path>
<path fill="#e9b040" style="fill: var(--color121, #e9b040)" d="M16.007 22.087c1.439 1.326 3.371 2.13 5.473 2.13 4.514 0 8.167-3.681 8.167-8.21 0-4.542-3.653-8.223-8.167-8.223-2.102 0-4.034 0.804-5.473 2.13-1.65 1.509-2.694 3.681-2.694 6.094s1.044 4.584 2.694 6.080z"></path>
<path fill="#e9b040" style="fill: var(--color121, #e9b040)" d="M28.561 20.577c0-0.141 0.113-0.254 0.254-0.254 0.155 0 0.268 0.113 0.268 0.254 0 0.155-0.113 0.268-0.268 0.268-0.141 0-0.254-0.113-0.254-0.268zM28.815 20.789c0.113 0 0.211-0.099 0.211-0.212s-0.099-0.197-0.211-0.197c-0.099 0-0.197 0.085-0.197 0.197s0.099 0.212 0.197 0.212zM28.787 20.704h-0.056v-0.24h0.099c0.014 0 0.043 0 0.056 0.014 0.028 0.014 0.028 0.028 0.028 0.056s-0.014 0.056-0.042 0.056l0.056 0.113h-0.071l-0.028-0.099h-0.042v0.099-0.141h0.056c0.014 0 0.014-0.014 0.014-0.028s0-0.014-0.014-0.028h-0.056v0.198z"></path>
<path fill="#cc2131" style="fill: var(--color122, #cc2131)" d="M18.645 15.133c-0.028-0.296-0.085-0.578-0.141-0.875h-4.993c0.056-0.296 0.141-0.578 0.226-0.86h4.528c-0.12-0.363-0.235-0.652-0.363-0.934l0.024 0.059h-3.837c0.169-0.356 0.324-0.643 0.492-0.921l-0.026 0.046h2.892c-0.203-0.326-0.407-0.607-0.63-0.872l0.009 0.011h-1.651c0.262-0.318 0.534-0.604 0.826-0.869l0.007-0.006c-1.453-1.312-3.371-2.13-5.487-2.13-4.5 0-8.167 3.682-8.167 8.223 0 4.528 3.667 8.21 8.167 8.21 2.116 0 4.034-0.804 5.487-2.13 0.294-0.266 0.561-0.547 0.807-0.847l0.011-0.014h-1.651c-0.226-0.282-0.423-0.564-0.621-0.875h2.892c0.165-0.248 0.325-0.535 0.463-0.834l0.017-0.041h-3.837c-0.127-0.282-0.254-0.564-0.353-0.861h4.528c0.099-0.282 0.169-0.578 0.24-0.875 0.056-0.282 0.113-0.578 0.141-0.875 0.027-0.256 0.043-0.552 0.043-0.852 0-0.003 0-0.006 0-0.009v0c0-0.296-0.014-0.592-0.042-0.874z"></path>
<path fill="#fff" style="fill: var(--color1, #fff)" d="M28.561 17.911c0-0.155 0.113-0.268 0.254-0.268 0.155 0 0.268 0.113 0.268 0.268 0 0.141-0.113 0.268-0.268 0.268-0.141 0-0.254-0.127-0.254-0.268zM28.815 18.109c0.113 0 0.211-0.085 0.211-0.197s-0.099-0.197-0.211-0.197c-0.099 0-0.197 0.085-0.197 0.197s0.099 0.197 0.197 0.197zM28.787 18.024h-0.056v-0.226h0.155c0.028 0.014 0.028 0.043 0.028 0.071 0 0.014-0.014 0.042-0.042 0.056l0.056 0.099h-0.071l-0.028-0.085h-0.042v0.084-0.127h0.028c0.014 0 0.028 0 0.028-0.014 0.014 0 0.014-0.014 0.014-0.028 0 0 0-0.014-0.014-0.014 0-0.014-0.014 0-0.028 0h-0.028v0.183z"></path>
<path fill="#1b3771" style="fill: var(--color123, #1b3771)" d="M13.228 18.377c-0.268 0.070-0.466 0.113-0.663 0.113-0.423 0-0.677-0.268-0.677-0.748 0-0.099 0.014-0.197 0.028-0.31l0.056-0.324 0.042-0.268 0.381-2.313h0.846l-0.099 0.508h0.536l-0.127 0.846h-0.536l-0.226 1.382c-0.014 0.071-0.014 0.113-0.014 0.141 0 0.183 0.085 0.254 0.296 0.254 0.099 0 0.183-0.014 0.268-0.028l-0.113 0.748zM15.965 18.349c-0.31 0.085-0.592 0.127-0.903 0.127-0.959 0-1.509-0.508-1.509-1.509 0-1.171 0.649-2.017 1.552-2.017 0.719 0 1.185 0.48 1.185 1.227 0 0.254-0.028 0.494-0.099 0.832h-1.763c-0.014 0.056-0.014 0.085-0.014 0.113 0 0.395 0.268 0.592 0.776 0.592 0.324 0 0.606-0.070 0.917-0.211l-0.141 0.846zM15.443 16.332v-0.169c0-0.282-0.155-0.437-0.423-0.437-0.282 0-0.48 0.211-0.564 0.606l0.987 0zM6.458 18.419h-0.875l0.508-3.202-1.143 3.202h-0.606l-0.071-3.188-0.536 3.188h-0.86l0.691-4.161h1.284l0.028 2.567 0.86-2.567h1.411l-0.691 4.161zM8.588 16.91c-0.085-0.014-0.113-0.014-0.169-0.014-0.508 0-0.762 0.197-0.762 0.508 0 0.212 0.127 0.353 0.324 0.353 0.423 0 0.592-0.353 0.607-0.846zM9.293 18.419h-0.762l0.014-0.352c-0.198 0.268-0.466 0.409-0.931 0.409-0.423 0-0.79-0.381-0.79-0.931 0-0.155 0.028-0.296 0.071-0.437 0.141-0.522 0.663-0.846 1.467-0.861 0.099 0 0.254 0 0.395 0.014 0.028-0.113 0.028-0.155 0.028-0.226 0-0.226-0.183-0.296-0.592-0.296-0.254 0-0.536 0.042-0.733 0.113l-0.127 0.028-0.056 0.014 0.127-0.762c0.409-0.127 0.705-0.183 1.030-0.183 0.762 0 1.171 0.353 1.171 1.001 0 0.169 0.014 0.296-0.042 0.663l-0.197 1.213-0.028 0.212-0.014 0.169-0.014 0.113-0.014 0.098zM20.225 15.062c0.254 0 0.48 0.071 0.79 0.226l0.155-0.903c-0.085-0.042-0.113-0.042-0.226-0.085l-0.352-0.099c-0.113-0.028-0.254-0.042-0.409-0.042-0.437 0-0.691 0.014-0.959 0.169-0.141 0.099-0.325 0.226-0.522 0.451l-0.113-0.028-0.903 0.635 0.043-0.353h-0.931l-0.55 3.385h0.889l0.324-1.819s0.127-0.254 0.183-0.338c0.169-0.212 0.31-0.212 0.494-0.212h0.071c-0.027 0.187-0.043 0.402-0.043 0.621 0 0.010 0 0.019 0 0.029v-0.002c0 1.1 0.621 1.791 1.58 1.791 0.24 0 0.452-0.028 0.776-0.113l0.155-0.959c-0.282 0.155-0.536 0.226-0.748 0.226-0.522 0-0.832-0.395-0.832-1.015-0-0.917 0.465-1.566 1.128-1.566zM27.714 14.258l-0.197 1.185c-0.212-0.324-0.466-0.48-0.804-0.48-0.466 0-0.903 0.268-1.171 0.776v-0.014l-0.564-0.339 0.056-0.353h-0.945l-0.536 3.385h0.875l0.296-1.819s0.226-0.254 0.282-0.338c0.141-0.169 0.282-0.198 0.395-0.212-0.099 0.282-0.155 0.621-0.155 1.002 0 0.846 0.437 1.41 1.086 1.41 0.325 0 0.578-0.113 0.818-0.381l-0.042 0.338h0.832l0.677-4.161h-0.903zM26.628 17.615c-0.296 0-0.451-0.226-0.451-0.663 0-0.663 0.282-1.143 0.691-1.143 0.31 0 0.466 0.24 0.466 0.663 0 0.677-0.282 1.142-0.705 1.142zM22.552 16.91c-0.085-0.014-0.113-0.014-0.169-0.014-0.508 0-0.762 0.197-0.762 0.508 0 0.212 0.127 0.353 0.325 0.353 0.423 0 0.593-0.353 0.607-0.846zM23.257 18.419h-0.776l0.028-0.352c-0.197 0.268-0.466 0.409-0.931 0.409-0.437 0-0.818-0.367-0.818-0.931 0-0.804 0.606-1.298 1.566-1.298 0.099 0 0.254 0 0.381 0.014 0.028-0.113 0.043-0.155 0.043-0.226 0-0.226-0.183-0.296-0.607-0.296-0.24 0-0.536 0.042-0.733 0.113l-0.169 0.042 0.127-0.762c0.409-0.127 0.706-0.183 1.030-0.183 0.762 0 1.157 0.353 1.157 1.001 0 0.169 0.028 0.296-0.042 0.663l-0.183 1.213-0.028 0.212-0.028 0.169-0.014 0.113v0.098h-0zM11.141 15.753c0.169 0 0.409 0.014 0.663 0.056l0.127-0.79c-0.254-0.028-0.592-0.071-0.79-0.071-0.987 0-1.312 0.536-1.312 1.157 0 0.409 0.183 0.705 0.663 0.931 0.353 0.169 0.409 0.197 0.409 0.353 0 0.211-0.183 0.338-0.522 0.338-0.268 0-0.522-0.043-0.804-0.141l-0.099 0.776 0.014 0.014 0.169 0.028c0.056 0.014 0.127 0.028 0.226 0.042 0.211 0.014 0.395 0.028 0.508 0.028 0.987 0 1.396-0.381 1.396-1.128 0-0.465-0.226-0.747-0.663-0.945-0.381-0.169-0.423-0.197-0.423-0.353s0.169-0.296 0.437-0.296z"></path>
<path fill="#fff" style="fill: var(--color1, #fff)" d="M21.41 14.117l-0.155 0.903c-0.31-0.155-0.536-0.226-0.79-0.226-0.663 0-1.128 0.649-1.128 1.566 0 0.635 0.31 1.015 0.832 1.015 0.211 0 0.465-0.070 0.747-0.211l-0.155 0.945c-0.325 0.085-0.536 0.127-0.776 0.127-0.959 0-1.552-0.691-1.552-1.805 0-1.481 0.818-2.525 1.989-2.525 0.155 0 0.296 0.014 0.409 0.042l0.353 0.085c0.113 0.042 0.141 0.056 0.226 0.085zM18.56 14.738h-0.085c-0.296 0-0.465 0.141-0.733 0.55l0.085-0.522h-0.804l-0.55 3.385h0.889c0.324-2.073 0.409-2.426 0.832-2.426h0.056c0.085-0.409 0.197-0.705 0.338-0.973l-0.028-0.014zM13.454 18.109c-0.24 0.085-0.437 0.113-0.635 0.113-0.451 0-0.705-0.254-0.705-0.747 0-0.085 0.014-0.197 0.028-0.296l0.056-0.338 0.042-0.268 0.381-2.314h0.875l-0.099 0.508h0.451l-0.113 0.832h-0.451l-0.24 1.411c-0.014 0.056-0.014 0.099-0.014 0.141 0 0.169 0.085 0.24 0.296 0.24 0.099 0 0.183 0 0.24-0.028l-0.113 0.747zM10.055 15.838c0 0.423 0.197 0.719 0.663 0.945 0.367 0.169 0.423 0.226 0.423 0.367 0 0.212-0.155 0.31-0.508 0.31-0.268 0-0.508-0.042-0.79-0.127l-0.127 0.776 0.042 0.014 0.155 0.028c0.056 0.014 0.127 0.028 0.24 0.028 0.197 0.028 0.367 0.028 0.48 0.028 0.931 0 1.368-0.353 1.368-1.128 0-0.466-0.183-0.734-0.621-0.945-0.381-0.169-0.423-0.211-0.423-0.367 0-0.183 0.155-0.268 0.437-0.268 0.169 0 0.409 0.014 0.635 0.042l0.127-0.776c-0.226-0.042-0.578-0.071-0.776-0.071-0.987-0-1.34 0.522-1.326 1.142zM28.166 18.151h-0.832l0.043-0.325c-0.24 0.254-0.494 0.367-0.818 0.367-0.649 0-1.072-0.55-1.072-1.396 0-1.129 0.663-2.088 1.439-2.088 0.353 0 0.607 0.155 0.847 0.466l0.197-1.185h0.875l-0.677 4.161zM26.868 17.361c0.409 0 0.691-0.48 0.691-1.143 0-0.437-0.155-0.663-0.466-0.663-0.395 0-0.691 0.466-0.691 1.129 0 0.452 0.155 0.677 0.465 0.677zM16.162 18.080c-0.31 0.099-0.592 0.141-0.917 0.141-0.987 0-1.495-0.522-1.495-1.523 0-1.157 0.649-2.017 1.538-2.017 0.733 0 1.199 0.48 1.199 1.227 0 0.254-0.028 0.494-0.113 0.846h-1.749c-0.014 0.043-0.014 0.071-0.014 0.099 0 0.395 0.268 0.592 0.776 0.592 0.324 0 0.606-0.056 0.917-0.212l-0.141 0.846zM15.668 16.063v-0.169c0-0.282-0.155-0.437-0.423-0.437-0.282 0-0.48 0.212-0.564 0.606h0.987zM6.683 18.151h-0.875l0.508-3.202-1.143 3.202h-0.607l-0.071-3.174-0.536 3.174h-0.818l0.691-4.161h1.27l0.042 2.581 0.846-2.581h1.382l-0.691 4.161zM8.87 16.642c-0.085 0-0.127-0.014-0.198-0.014-0.494 0-0.748 0.183-0.748 0.522 0 0.212 0.113 0.338 0.31 0.338 0.367 0 0.621-0.338 0.635-0.846zM9.519 18.151h-0.734l0.014-0.353c-0.226 0.282-0.522 0.409-0.931 0.409-0.48 0-0.804-0.367-0.804-0.917 0-0.832 0.564-1.312 1.552-1.312 0.099 0 0.226 0.014 0.367 0.028 0.028-0.113 0.028-0.155 0.028-0.211 0-0.226-0.155-0.31-0.564-0.31-0.254 0-0.536 0.028-0.733 0.085l-0.127 0.042-0.085 0.014 0.127-0.762c0.437-0.127 0.733-0.169 1.058-0.169 0.762 0 1.171 0.338 1.171 0.987 0 0.169-0.014 0.296-0.071 0.677l-0.198 1.199-0.028 0.211-0.014 0.169-0.014 0.127-0.014 0.084zM22.834 16.642c-0.099 0-0.141-0.014-0.197-0.014-0.508 0-0.762 0.183-0.762 0.522 0 0.212 0.127 0.338 0.325 0.338 0.353 0 0.621-0.338 0.635-0.846zM23.483 18.151h-0.733l0.014-0.353c-0.226 0.282-0.522 0.409-0.931 0.409-0.48 0-0.804-0.367-0.804-0.917 0-0.832 0.564-1.312 1.552-1.312 0.099 0 0.226 0.014 0.353 0.028 0.028-0.113 0.043-0.155 0.043-0.211 0-0.226-0.155-0.31-0.564-0.31-0.254 0-0.55 0.028-0.748 0.085l-0.113 0.042-0.085 0.014 0.127-0.762c0.437-0.127 0.733-0.169 1.058-0.169 0.762 0 1.157 0.338 1.157 0.987 0 0.169 0 0.296-0.070 0.677l-0.183 1.199-0.028 0.211-0.028 0.169-0.014 0.127v0.084h-0zM25.853 14.738h-0.085c-0.296 0-0.465 0.141-0.733 0.55l0.085-0.522h-0.804l-0.536 3.385h0.875c0.325-2.073 0.409-2.426 0.832-2.426h0.056c0.085-0.409 0.197-0.705 0.338-0.973l-0.028-0.014z"></path>
</symbol>
<symbol id="icon-visa" viewBox="0 0 32 32">
<path fill="#fff" style="fill: var(--color1, #fff)" d="M0 0h32v32h-32v-32z"></path>
<path fill="#315881" style="fill: var(--color124, #315881)" d="M31.53 8.435c0-1.492-0.775-2.232-2.279-2.232h-26.501c-0.752 0-1.304 0.2-1.668 0.611-0.411 0.411-0.611 0.94-0.611 1.621v15.13c0 0.681 0.2 1.198 0.611 1.621 0.423 0.411 0.963 0.611 1.668 0.611h26.501c1.504 0 2.279-0.752 2.279-2.232v-15.13zM29.25 6.556c1.245 0 1.88 0.634 1.88 1.879v15.13c0 1.257-0.634 1.879-1.88 1.879h-26.501c-0.599 0-1.057-0.176-1.398-0.529-0.352-0.341-0.529-0.811-0.529-1.351v-15.13c0-1.245 0.623-1.879 1.926-1.879h26.501z"></path>
<path fill="#315881" style="fill: var(--color124, #315881)" d="M2.961 7.425c-0.505 0-0.822 0.082-0.998 0.258-0.153 0.2-0.223 0.529-0.223 1.010v3.277h28.521v-3.277c0-0.857-0.423-1.269-1.269-1.269h-26.031z"></path>
<path fill="#dfa43b" style="fill: var(--color125, #dfa43b)" d="M1.739 23.26c0 0.869 0.411 1.316 1.222 1.316h26.031c0.846 0 1.269-0.446 1.269-1.316v-3.277h-28.521v3.277z"></path>
<path fill="#315881" style="fill: var(--color124, #315881)" d="M11.184 13.369c0 0.153-0.024 0.27-0.082 0.352l-2.056 3.583-0.129-4.37h-3.289l1.104 0.529c0.317 0.2 0.482 0.458 0.482 0.787l0.305 4.64h1.609l3.853-5.956h-1.973c0.117 0.106 0.176 0.27 0.176 0.435zM24.481 13.11l0.129-0.176h-2.009c0.070 0.070 0.094 0.106 0.094 0.129-0.024 0.094-0.071 0.153-0.094 0.223l-2.925 5.333c-0.070 0.094-0.141 0.176-0.223 0.27h1.656l-0.082-0.176c0-0.153 0.082-0.434 0.258-0.834l0.352-0.658h1.703c0.071 0.552 0.118 1.010 0.141 1.351l-0.141 0.317h2.056l-0.305-0.446-0.611-5.333zM23.26 16.388h-1.222l1.045-2.009 0.176 2.009zM18.185 12.629c-0.634 0-1.175 0.176-1.656 0.529-0.529 0.305-0.787 0.693-0.787 1.175 0 0.552 0.188 1.034 0.564 1.398l1.14 0.787c0.411 0.294 0.611 0.552 0.611 0.787 0 0.223-0.106 0.423-0.305 0.576s-0.423 0.223-0.705 0.223c-0.411 0-1.116-0.294-2.091-0.834v1.092c0.764 0.458 1.504 0.693 2.22 0.693 0.681 0 1.257-0.188 1.751-0.611 0.529-0.388 0.787-0.846 0.787-1.351 0-0.423-0.188-0.811-0.611-1.222l-1.093-0.787c-0.364-0.294-0.564-0.552-0.564-0.752 0-0.458 0.27-0.693 0.822-0.693 0.376 0 0.928 0.211 1.668 0.658l0.223-1.139c-0.623-0.353-1.269-0.529-1.974-0.529zM13.815 18.89c-0.024-0.247-0.071-0.47-0.094-0.705l1.492-4.816 0.352-0.435h-2.15c0.024 0.106 0.047 0.247 0.071 0.352 0 0.106 0 0.235-0.024 0.352l-1.492 4.769-0.305 0.482 2.15-0z"></path>
</symbol>
<symbol id="icon-generic" viewBox="0 0 50 32">
<path fill="none" stroke="#393939" style="stroke: var(--color1, #393939)" stroke-linejoin="miter" stroke-linecap="butt" stroke-miterlimit="4" stroke-width="1.92" d="M46.351 1.024h-42.847c-1.352 0-2.448 1.069-2.448 2.388v25.072c0 1.319 1.096 2.388 2.448 2.388h42.847c1.352 0 2.449-1.069 2.449-2.388v-25.072c0-1.319-1.096-2.388-2.449-2.388z"></path>
<path fill="#000" style="fill: var(--color2, #000)" opacity="0.038416000000000006" d="M44.33 18.652h0.257l0.025 0.673h0.7l-0.648-1.497 0.243-0.103 0.715 1.62v0.206h-1.007v0.577h-0.285v-0.577h-0.313v-0.227h0.313zM42.818 17.726c0.246 0 0.482 0.082 0.686 0.275l-0.159 0.175c-0.162-0.148-0.306-0.22-0.514-0.22-0.257 0-0.461 0.141-0.461 0.401 0 0.285 0.229 0.415 0.461 0.415h0.144l0.035 0.227h-0.204c-0.285 0-0.503 0.11-0.503 0.449 0 0.295 0.2 0.484 0.542 0.484 0.197 0 0.401-0.079 0.538-0.237l0.197 0.158c-0.183 0.22-0.472 0.312-0.743 0.312-0.5 0-0.841-0.309-0.841-0.718 0-0.367 0.268-0.559 0.553-0.58-0.257-0.048-0.475-0.264-0.475-0.549-0-0.323 0.289-0.594 0.743-0.594zM40.707 17.726c0.327 0 0.546 0.113 0.739 0.34l-0.204 0.151c-0.155-0.175-0.285-0.251-0.524-0.251-0.271 0-0.433 0.165-0.433 0.429 0 0.388 0.197 0.645 1.112 1.5v0.233h-1.44l-0.035-0.244h1.14c-0.799-0.711-1.084-1.064-1.084-1.497 0-0.378 0.271-0.663 0.729-0.663zM38.488 17.767l0.718 0.432-0.127 0.203-0.556-0.326v1.819h0.599v0.233h-1.397v-0.233h0.507v-2.128zM33.778 18.652h0.257l0.025 0.673h0.7l-0.648-1.497 0.243-0.103 0.715 1.62v0.206h-1.006v0.577h-0.285v-0.577h-0.313v-0.227h0.313zM32.266 17.726c0.246 0 0.482 0.082 0.686 0.275l-0.158 0.175c-0.162-0.148-0.306-0.22-0.514-0.22-0.257 0-0.461 0.141-0.461 0.401 0 0.285 0.229 0.415 0.461 0.415h0.144l0.035 0.227h-0.204c-0.285 0-0.503 0.11-0.503 0.449 0 0.295 0.201 0.484 0.542 0.484 0.197 0 0.401-0.079 0.538-0.237l0.197 0.158c-0.183 0.22-0.472 0.312-0.743 0.312-0.5 0-0.841-0.309-0.841-0.718 0-0.367 0.268-0.559 0.553-0.58-0.257-0.048-0.475-0.264-0.475-0.549 0-0.323 0.289-0.594 0.743-0.594zM30.155 17.726c0.327 0 0.546 0.113 0.739 0.34l-0.204 0.151c-0.155-0.175-0.285-0.251-0.524-0.251-0.271 0-0.433 0.165-0.433 0.429 0 0.388 0.197 0.645 1.112 1.5v0.233h-1.439l-0.035-0.244h1.14c-0.799-0.711-1.084-1.064-1.084-1.497 0-0.378 0.271-0.663 0.729-0.663zM27.936 17.767l0.718 0.432-0.127 0.203-0.556-0.326v1.819h0.598v0.233h-1.397v-0.233h0.507v-2.128zM23.226 18.652h0.257l0.025 0.673h0.7l-0.648-1.497 0.243-0.103 0.714 1.62v0.206h-1.007v0.577h-0.285v-0.577h-0.313v-0.227h0.313zM21.714 17.726c0.246 0 0.482 0.082 0.686 0.275l-0.158 0.175c-0.162-0.148-0.306-0.22-0.514-0.22-0.257 0-0.461 0.141-0.461 0.401 0 0.285 0.229 0.415 0.461 0.415h0.144l0.035 0.227h-0.204c-0.285 0-0.503 0.11-0.503 0.449 0 0.295 0.201 0.484 0.542 0.484 0.197 0 0.401-0.079 0.539-0.237l0.197 0.158c-0.183 0.22-0.472 0.312-0.743 0.312-0.5 0-0.841-0.309-0.841-0.718 0-0.367 0.268-0.559 0.553-0.58-0.257-0.048-0.475-0.264-0.475-0.549 0-0.323 0.289-0.594 0.743-0.594zM19.603 17.726c0.327 0 0.545 0.113 0.739 0.34l-0.204 0.151c-0.155-0.175-0.285-0.251-0.524-0.251-0.271 0-0.433 0.165-0.433 0.429 0 0.388 0.197 0.645 1.112 1.5v0.233h-1.44l-0.035-0.244h1.14c-0.799-0.711-1.084-1.064-1.084-1.497 0-0.378 0.271-0.663 0.729-0.663zM17.384 17.767l0.718 0.432-0.127 0.203-0.556-0.326v1.819h0.598v0.233h-1.397v-0.233h0.507v-2.128zM12.674 18.652h0.257l0.025 0.673h0.7l-0.648-1.497 0.243-0.103 0.715 1.62v0.206h-1.007v0.577h-0.285v-0.577h-0.313v-0.227h0.313v-0.673zM11.162 17.726c0.246 0 0.482 0.082 0.686 0.275l-0.158 0.175c-0.162-0.148-0.306-0.22-0.514-0.22-0.257 0-0.461 0.141-0.461 0.401 0 0.285 0.229 0.415 0.461 0.415h0.144l0.035 0.227h-0.204c-0.285 0-0.503 0.11-0.503 0.449 0 0.295 0.201 0.484 0.542 0.484 0.197 0 0.401-0.079 0.538-0.237l0.197 0.158c-0.183 0.22-0.472 0.312-0.743 0.312-0.5 0-0.841-0.309-0.841-0.718 0-0.367 0.268-0.559 0.553-0.58-0.257-0.048-0.475-0.264-0.475-0.549-0-0.323 0.289-0.594 0.743-0.594zM9.052 17.726c0.327 0 0.546 0.113 0.739 0.34l-0.204 0.151c-0.155-0.175-0.285-0.251-0.524-0.251-0.271 0-0.433 0.165-0.433 0.429 0 0.388 0.197 0.645 1.112 1.5v0.233h-1.44l-0.035-0.244h1.14c-0.799-0.711-1.084-1.064-1.084-1.497 0-0.378 0.271-0.663 0.729-0.663zM6.832 17.767l0.718 0.432-0.127 0.203-0.556-0.326v1.819h0.598v0.233h-1.397v-0.233h0.507v-2.128z"></path>
<path fill="#000" style="fill: var(--color2, #000)" opacity="0.038416000000000006" d="M45.649 24.421v-0.161c-0.155-0.015-0.264-0.039-0.325-0.073s-0.107-0.117-0.138-0.246h-0.17v1.663h0.23v-1.182zM44.286 24.421v-0.161c-0.155-0.015-0.264-0.039-0.325-0.073s-0.107-0.117-0.137-0.246h-0.17v1.663h0.23v-1.182h0.403zM42.402 25.603c-0.008-0.144-0.038-0.269-0.091-0.375s-0.157-0.203-0.311-0.29l-0.229-0.129c-0.103-0.058-0.175-0.108-0.216-0.149-0.065-0.065-0.098-0.138-0.098-0.222 0-0.097 0.030-0.174 0.090-0.231s0.139-0.086 0.239-0.086c0.147 0 0.249 0.054 0.306 0.163 0.030 0.058 0.047 0.139 0.050 0.242h0.219c-0.002-0.145-0.030-0.264-0.083-0.356-0.093-0.162-0.258-0.242-0.494-0.242-0.196 0-0.339 0.052-0.429 0.155s-0.136 0.218-0.136 0.345c0 0.134 0.048 0.248 0.145 0.343 0.056 0.055 0.156 0.122 0.3 0.201l0.164 0.088c0.078 0.042 0.139 0.082 0.184 0.12 0.080 0.068 0.13 0.143 0.15 0.225h-0.935v0.198h1.175zM40.48 25.649c0.202 0 0.349-0.054 0.441-0.162s0.136-0.241 0.136-0.396h-0.225c-0.010 0.108-0.030 0.186-0.062 0.235-0.056 0.088-0.157 0.132-0.303 0.132-0.113 0-0.204-0.029-0.272-0.089s-0.103-0.135-0.103-0.228c0-0.115 0.036-0.196 0.109-0.241s0.172-0.069 0.3-0.069c0.014 0 0.029 0 0.044 0.001s0.029 0 0.044 0.001v-0.185c-0.022 0.002-0.041 0.004-0.056 0.005s-0.032 0.001-0.049 0.001c-0.081 0-0.147-0.013-0.199-0.037-0.091-0.044-0.136-0.121-0.136-0.233 0-0.083 0.030-0.147 0.091-0.192s0.131-0.068 0.212-0.068c0.143 0 0.243 0.047 0.298 0.14 0.030 0.051 0.047 0.124 0.052 0.219h0.213c0-0.124-0.025-0.23-0.076-0.317-0.088-0.155-0.242-0.233-0.463-0.233-0.175 0-0.31 0.038-0.405 0.114s-0.143 0.185-0.143 0.329c0 0.103 0.028 0.186 0.085 0.249 0.035 0.040 0.081 0.071 0.136 0.093-0.090 0.024-0.16 0.071-0.21 0.14-0.051 0.068-0.077 0.152-0.077 0.252 0 0.159 0.054 0.289 0.162 0.389s0.26 0.15 0.458 0.15zM38.771 25.178c-0.014 0.12-0.071 0.203-0.171 0.248-0.051 0.023-0.11 0.035-0.177 0.035-0.128 0-0.222-0.040-0.283-0.119s-0.092-0.167-0.092-0.264c0-0.117 0.037-0.207 0.11-0.27s0.16-0.096 0.262-0.096c0.074 0 0.138 0.014 0.191 0.042s0.098 0.067 0.135 0.117l0.187-0.011-0.13-0.899h-0.889v0.203h0.728l0.073 0.464c-0.040-0.030-0.078-0.052-0.113-0.067-0.064-0.026-0.138-0.039-0.221-0.039-0.157 0-0.29 0.049-0.399 0.148s-0.164 0.224-0.164 0.375c0 0.158 0.050 0.297 0.151 0.417s0.259 0.181 0.478 0.181c0.139 0 0.263-0.038 0.37-0.114s0.167-0.195 0.179-0.353h-0.224zM37.045 24.633c-0.095 0-0.169-0.026-0.223-0.077s-0.080-0.114-0.080-0.185c0-0.062 0.026-0.119 0.076-0.171s0.129-0.078 0.233-0.078c0.104 0 0.179 0.026 0.225 0.078s0.069 0.113 0.069 0.183c0 0.079-0.030 0.14-0.090 0.184s-0.13 0.067-0.212 0.067zM37.032 25.46c-0.1 0-0.182-0.026-0.248-0.078-0.066-0.053-0.099-0.131-0.099-0.236 0-0.108 0.034-0.19 0.102-0.246s0.155-0.084 0.261-0.084c0.103 0 0.187 0.029 0.252 0.086s0.097 0.136 0.097 0.237c0 0.087-0.029 0.162-0.088 0.226s-0.152 0.094-0.276 0.094zM37.338 24.714c0.060-0.025 0.106-0.054 0.14-0.088 0.063-0.062 0.095-0.143 0.095-0.243 0-0.124-0.046-0.231-0.139-0.32s-0.223-0.134-0.393-0.134c-0.164 0-0.293 0.042-0.386 0.127s-0.14 0.182-0.14 0.295c0 0.104 0.027 0.188 0.081 0.253 0.030 0.036 0.077 0.072 0.141 0.107-0.071 0.032-0.127 0.068-0.167 0.11-0.076 0.078-0.113 0.179-0.113 0.303 0 0.147 0.050 0.272 0.152 0.374s0.244 0.153 0.429 0.153c0.167 0 0.308-0.044 0.423-0.132s0.172-0.217 0.172-0.385c0-0.099-0.025-0.184-0.074-0.255s-0.123-0.128-0.22-0.166z"></path>
<path fill="#000" style="fill: var(--color2, #000)" opacity="0.038416000000000006" d="M34.189 24.483v-0.161c-0.155-0.015-0.264-0.039-0.325-0.073s-0.107-0.117-0.137-0.246h-0.17v1.663h0.23v-1.182zM32.424 25.71c0.202 0 0.349-0.054 0.441-0.162 0.091-0.109 0.136-0.241 0.136-0.397h-0.225c-0.010 0.108-0.030 0.187-0.062 0.235-0.056 0.088-0.157 0.132-0.302 0.132-0.113 0-0.204-0.029-0.273-0.089s-0.103-0.135-0.103-0.228c0-0.115 0.036-0.196 0.109-0.241s0.172-0.069 0.3-0.069c0.014 0 0.029 0 0.044 0.001s0.029 0 0.044 0.001v-0.186c-0.022 0.002-0.041 0.004-0.056 0.005s-0.031 0.001-0.049 0.001c-0.081 0-0.147-0.012-0.199-0.037-0.091-0.044-0.136-0.121-0.136-0.233 0-0.083 0.030-0.147 0.091-0.192s0.131-0.068 0.211-0.068c0.144 0 0.243 0.047 0.298 0.14 0.030 0.051 0.047 0.124 0.051 0.219h0.213c0-0.124-0.026-0.23-0.076-0.317-0.088-0.155-0.242-0.233-0.463-0.233-0.175 0-0.31 0.038-0.405 0.114s-0.143 0.185-0.143 0.329c0 0.103 0.028 0.186 0.085 0.25 0.035 0.039 0.081 0.071 0.136 0.093-0.090 0.024-0.16 0.071-0.211 0.14s-0.076 0.152-0.076 0.252c0 0.159 0.054 0.289 0.161 0.389s0.26 0.151 0.458 0.151h0zM31.621 25.665c-0.008-0.144-0.038-0.269-0.091-0.376s-0.157-0.203-0.311-0.29l-0.23-0.129c-0.103-0.058-0.175-0.108-0.216-0.149-0.065-0.065-0.098-0.138-0.098-0.221 0-0.097 0.030-0.174 0.090-0.231s0.139-0.086 0.239-0.086c0.148 0 0.25 0.054 0.306 0.163 0.030 0.058 0.047 0.139 0.050 0.243h0.219c-0.002-0.145-0.030-0.264-0.082-0.356-0.093-0.162-0.258-0.242-0.494-0.242-0.196 0-0.339 0.052-0.429 0.155s-0.136 0.218-0.136 0.345c0 0.134 0.048 0.248 0.145 0.343 0.056 0.055 0.156 0.122 0.3 0.201l0.164 0.089c0.078 0.042 0.139 0.082 0.184 0.12 0.080 0.068 0.13 0.143 0.151 0.225h-0.935v0.198zM30.1 24.483v-0.161c-0.155-0.015-0.264-0.039-0.325-0.073s-0.107-0.117-0.137-0.246h-0.17v1.663h0.229v-1.182zM27.657 25.71c0.202 0 0.349-0.054 0.441-0.162 0.091-0.109 0.136-0.241 0.136-0.397h-0.225c-0.009 0.108-0.030 0.187-0.062 0.235-0.056 0.088-0.157 0.132-0.303 0.132-0.113 0-0.204-0.029-0.273-0.089s-0.103-0.135-0.103-0.228c0-0.115 0.036-0.196 0.109-0.241s0.172-0.069 0.3-0.069c0.014 0 0.029 0 0.044 0.001s0.029 0 0.044 0.001v-0.186c-0.022 0.002-0.041 0.004-0.056 0.005s-0.032 0.001-0.049 0.001c-0.080 0-0.147-0.012-0.198-0.037-0.091-0.044-0.136-0.121-0.136-0.233 0-0.083 0.030-0.147 0.091-0.192s0.131-0.068 0.212-0.068c0.143 0 0.243 0.047 0.298 0.14 0.030 0.051 0.047 0.124 0.051 0.219h0.213c0-0.124-0.025-0.23-0.077-0.317-0.088-0.155-0.242-0.233-0.463-0.233-0.175 0-0.31 0.038-0.405 0.114s-0.143 0.185-0.143 0.329c0 0.103 0.028 0.186 0.085 0.25 0.035 0.039 0.080 0.071 0.136 0.093-0.090 0.024-0.16 0.071-0.21 0.14s-0.077 0.152-0.077 0.252c0 0.159 0.054 0.289 0.161 0.389s0.26 0.15 0.458 0.15zM26.12 25.074v-0.757l0.549 0.757zM26.117 25.665v-0.408h0.751v-0.205l-0.784-1.061h-0.182v1.083h-0.252v0.183h0.252v0.408zM25.264 25.239c-0.014 0.12-0.071 0.202-0.171 0.248-0.051 0.023-0.11 0.035-0.177 0.035-0.128 0-0.222-0.040-0.283-0.119s-0.092-0.167-0.092-0.263c0-0.117 0.037-0.207 0.11-0.271s0.16-0.096 0.262-0.096c0.074 0 0.138 0.014 0.191 0.042 0.053 0.028 0.098 0.067 0.135 0.117l0.186-0.011-0.13-0.899h-0.889v0.203h0.728l0.073 0.464c-0.040-0.030-0.078-0.052-0.114-0.067-0.064-0.026-0.137-0.039-0.221-0.039-0.157 0-0.29 0.049-0.399 0.148s-0.164 0.224-0.164 0.375c0 0.158 0.050 0.297 0.151 0.417s0.259 0.181 0.478 0.181c0.139 0 0.263-0.038 0.371-0.114s0.167-0.195 0.179-0.353h-0.224zM23.901 25.239c-0.014 0.12-0.071 0.202-0.171 0.248-0.051 0.023-0.11 0.035-0.177 0.035-0.128 0-0.222-0.040-0.283-0.119s-0.092-0.167-0.092-0.263c0-0.117 0.037-0.207 0.11-0.271s0.16-0.096 0.262-0.096c0.074 0 0.138 0.014 0.191 0.042s0.098 0.067 0.135 0.117l0.186-0.011-0.13-0.899h-0.889v0.203h0.728l0.073 0.464c-0.040-0.030-0.078-0.052-0.114-0.067-0.064-0.026-0.137-0.039-0.221-0.039-0.157 0-0.29 0.049-0.399 0.148s-0.164 0.224-0.164 0.375c0 0.158 0.050 0.297 0.151 0.417s0.259 0.181 0.478 0.181c0.14 0 0.263-0.038 0.371-0.114s0.167-0.195 0.179-0.353h-0.224z"></path>
<path fill="#393939" style="fill: var(--color1, #393939)" d="M1.44 10.217h46.848v-6.089h-46.848z"></path>
<path fill="#000" style="fill: var(--color2, #000)" opacity="0.196" d="M3.627 11.59h34.4v4.776h-34.4z"></path>
<path fill="#000" style="fill: var(--color2, #000)" d="M32.763 12.94l-0.624 0.376 0.11 0.176 0.484-0.284v1.582h-0.52v0.203h1.215v-0.203h-0.441v-1.851zM34.503 12.904c-0.285 0-0.474 0.099-0.643 0.296l0.178 0.131c0.135-0.152 0.248-0.218 0.456-0.218 0.236 0 0.376 0.143 0.376 0.373 0 0.337-0.171 0.561-0.967 1.304v0.203h1.252l0.031-0.212h-0.992c0.695-0.618 0.943-0.925 0.943-1.301 0-0.328-0.236-0.576-0.634-0.576zM36.338 12.904c-0.214 0-0.419 0.072-0.597 0.239l0.138 0.152c0.141-0.128 0.266-0.191 0.447-0.191 0.223 0 0.401 0.122 0.401 0.349 0 0.248-0.199 0.361-0.401 0.361h-0.125l-0.031 0.197h0.177c0.248 0 0.438 0.096 0.438 0.391 0 0.257-0.175 0.421-0.471 0.421-0.171 0-0.349-0.069-0.468-0.206l-0.171 0.137c0.159 0.191 0.41 0.272 0.646 0.272 0.435 0 0.731-0.269 0.731-0.624 0-0.319-0.233-0.486-0.48-0.504 0.223-0.042 0.413-0.23 0.413-0.478 0-0.281-0.251-0.516-0.646-0.516z"></path>
</symbol>
</defs>
</svg>
